{"glyphs":{"0":{"ha":1070,"x_min":61,"x_max":1009,"o":"m 534 -18 q 313 44 422 -18 q 133 228 204 105 q 61 526 61 351 q 132 831 61 707 q 313 1015 203 955 q 534 1076 422 1076 q 756 1016 647 1076 q 938 835 866 956 q 1009 541 1009 714 q 937 233 1009 359 q 756 45 865 107 q 534 -18 646 -18 m 692 81 q 800 228 764 142 q 836 410 836 313 q 803 600 836 505 q 711 771 772 692 q 565 905 650 851 q 381 975 480 960 q 271 830 307 916 q 235 646 235 744 q 267 456 235 550 q 358 284 298 363 q 504 151 418 204 q 692 81 589 97 z "},"1":{"ha":537,"x_min":41,"x_max":483,"o":"m 109 14 l 196 87 l 196 790 l 41 818 l 41 831 l 381 1055 l 395 1055 l 395 87 l 483 14 l 483 0 l 109 0 l 109 14 z "},"2":{"ha":904,"x_min":61,"x_max":843,"o":"m 98 14 q 314 219 220 120 q 487 464 408 318 q 566 770 566 609 q 545 882 566 830 q 487 967 524 934 q 404 1006 450 1000 l 189 722 l 174 722 l 61 914 q 224 1030 127 985 q 426 1074 321 1074 q 614 1034 534 1074 q 736 918 694 993 q 779 741 779 842 q 738 549 779 646 q 619 366 696 453 q 440 211 543 279 l 392 193 l 612 193 l 843 236 l 816 0 l 98 0 l 98 14 z "},"3":{"ha":827,"x_min":54,"x_max":772,"o":"m 364 -20 q 188 2 265 -20 q 54 56 111 24 l 167 248 l 180 248 l 291 48 q 427 77 368 48 q 519 163 486 106 q 553 299 553 220 q 524 431 553 367 q 447 538 495 496 l 210 506 l 210 574 l 428 604 q 496 688 473 640 q 519 808 519 737 q 493 909 519 864 q 421 981 467 955 q 317 1007 375 1007 l 206 810 l 193 810 l 80 1002 q 391 1076 201 1076 q 566 1040 489 1076 q 687 943 644 1004 q 730 808 730 882 q 680 673 730 732 q 540 583 629 613 q 652 528 599 568 q 739 430 705 489 q 772 302 772 372 q 722 134 772 207 q 579 20 671 61 q 364 -20 486 -20 z "},"4":{"ha":938,"x_min":54,"x_max":884,"o":"m 351 14 l 477 110 l 477 339 l 54 339 l 448 1035 l 741 1076 l 177 408 l 477 408 l 477 665 l 664 886 l 677 886 l 677 408 l 884 437 l 884 339 l 677 339 l 677 110 l 767 14 l 767 0 l 351 0 l 351 14 z "},"5":{"ha":817,"x_min":54,"x_max":762,"o":"m 336 -19 q 180 4 260 -19 q 54 56 100 27 l 165 248 l 178 248 l 289 48 q 427 84 368 48 q 517 179 486 120 q 549 305 549 238 q 473 543 549 450 l 82 490 l 82 1055 l 692 1055 l 653 824 l 422 856 l 151 856 l 151 568 l 572 627 q 711 505 661 583 q 762 321 762 427 q 708 149 762 227 q 556 26 653 71 q 336 -19 458 -19 z "},"6":{"ha":877,"x_min":61,"x_max":816,"o":"m 465 -19 q 273 36 366 -19 q 120 202 180 91 q 61 475 61 314 q 133 822 61 687 q 308 1016 205 956 q 507 1076 410 1076 q 653 1055 582 1076 q 777 1002 724 1034 l 664 810 l 651 810 l 541 1007 q 472 983 541 1018 q 346 852 404 948 q 276 578 287 757 l 621 627 q 764 506 711 583 q 816 332 816 430 q 768 138 816 218 q 641 20 720 59 q 465 -19 561 -19 m 455 51 q 571 114 532 51 q 611 276 611 177 q 590 425 611 357 q 526 543 570 493 l 274 507 q 319 164 274 277 q 455 51 363 51 z "},"7":{"ha":776,"x_min":54,"x_max":722,"o":"m 607 823 l 640 856 l 279 856 l 54 822 l 98 1055 l 722 1055 l 722 856 l 397 20 l 104 -20 l 607 823 z "},"8":{"ha":880,"x_min":61,"x_max":819,"o":"m 441 -19 q 245 18 332 -19 q 110 118 159 55 q 61 259 61 182 q 124 436 61 366 q 288 535 187 505 q 157 655 197 593 q 117 799 117 717 q 161 946 117 884 q 280 1041 205 1008 q 446 1074 355 1074 q 609 1043 536 1074 q 724 956 682 1012 q 766 828 766 899 q 720 672 766 740 q 583 572 674 604 q 717 480 666 525 q 794 382 768 435 q 819 264 819 330 q 767 114 819 178 q 627 15 714 50 q 441 -19 541 -19 m 521 607 q 571 707 552 648 q 590 823 590 765 q 551 959 590 912 q 444 1005 511 1005 q 368 985 400 1005 q 317 928 335 964 q 299 844 299 891 q 330 736 299 783 q 427 656 361 690 l 521 607 m 448 50 q 534 71 495 50 q 596 127 574 92 q 619 207 619 163 q 596 300 619 258 q 516 390 573 342 q 352 503 458 437 q 261 249 261 402 q 284 144 261 189 q 349 74 307 99 q 448 50 391 50 z "},"9":{"ha":866,"x_min":50,"x_max":805,"o":"m 401 1076 q 593 1021 500 1076 q 746 854 686 966 q 805 581 805 743 q 733 235 805 370 q 558 41 661 100 q 359 -19 456 -19 q 213 2 284 -19 q 89 55 142 22 l 202 247 l 215 247 l 326 50 q 394 74 326 39 q 520 204 462 109 q 590 479 579 300 l 245 430 q 102 550 155 474 q 50 725 50 627 q 98 918 50 839 q 225 1037 146 998 q 401 1076 305 1076 m 411 1006 q 295 943 334 1006 q 255 781 255 880 q 276 632 255 700 q 340 513 296 564 l 592 549 q 547 892 592 779 q 411 1006 503 1006 z "}," ":{"ha":339,"x_min":0,"x_max":0,"o":""},"A":{"ha":1071,"x_min":34,"x_max":1037,"o":"m 34 14 l 117 87 l 424 838 l 363 912 l 531 1076 l 545 1076 l 955 87 l 1037 14 l 1037 0 l 585 0 l 585 13 l 735 87 l 659 272 l 267 272 l 191 87 l 341 14 l 341 0 l 34 0 l 34 14 m 632 336 l 462 745 l 294 336 l 632 336 z "},"Á":{"ha":1071,"x_min":34,"x_max":1037,"o":"m 34 14 l 117 87 l 424 838 l 363 912 l 531 1076 l 545 1076 l 955 87 l 1037 14 l 1037 0 l 585 0 l 585 13 l 735 87 l 659 272 l 267 272 l 191 87 l 341 14 l 341 0 l 34 0 l 34 14 m 632 336 l 462 745 l 294 336 l 632 336 m 544 1373 l 731 1373 l 731 1360 l 433 1150 l 418 1150 l 544 1373 z "},"Ă":{"ha":1071,"x_min":34,"x_max":1037,"o":"m 34 14 l 117 87 l 424 838 l 363 912 l 531 1076 l 545 1076 l 955 87 l 1037 14 l 1037 0 l 585 0 l 585 13 l 735 87 l 659 272 l 267 272 l 191 87 l 341 14 l 341 0 l 34 0 l 34 14 m 632 336 l 462 745 l 294 336 l 632 336 m 533 1150 q 413 1180 463 1150 q 337 1253 363 1209 q 308 1339 311 1296 l 320 1339 q 396 1282 343 1305 q 533 1257 448 1259 q 675 1281 622 1259 q 747 1339 729 1302 l 759 1339 q 730 1252 756 1295 q 654 1179 704 1208 q 533 1150 604 1150 z "},"Â":{"ha":1071,"x_min":34,"x_max":1037,"o":"m 34 14 l 117 87 l 424 838 l 363 912 l 531 1076 l 545 1076 l 955 87 l 1037 14 l 1037 0 l 585 0 l 585 13 l 735 87 l 659 272 l 267 272 l 191 87 l 341 14 l 341 0 l 34 0 l 34 14 m 632 336 l 462 745 l 294 336 l 632 336 m 319 1155 l 538 1394 l 756 1155 l 748 1145 l 538 1254 l 327 1145 l 319 1155 z "},"Ä":{"ha":1071,"x_min":34,"x_max":1037,"o":"m 34 14 l 117 87 l 424 838 l 363 912 l 531 1076 l 545 1076 l 955 87 l 1037 14 l 1037 0 l 585 0 l 585 13 l 735 87 l 659 272 l 267 272 l 191 87 l 341 14 l 341 0 l 34 0 l 34 14 m 632 336 l 462 745 l 294 336 l 632 336 m 286 1262 l 394 1369 l 503 1262 l 394 1154 l 286 1262 m 572 1262 l 681 1369 l 789 1262 l 681 1154 l 572 1262 z "},"À":{"ha":1071,"x_min":34,"x_max":1037,"o":"m 34 14 l 117 87 l 424 838 l 363 912 l 531 1076 l 545 1076 l 955 87 l 1037 14 l 1037 0 l 585 0 l 585 13 l 735 87 l 659 272 l 267 272 l 191 87 l 341 14 l 341 0 l 34 0 l 34 14 m 632 336 l 462 745 l 294 336 l 632 336 m 585 1150 l 287 1360 l 287 1373 l 474 1373 l 600 1150 l 585 1150 z "},"Ā":{"ha":1071,"x_min":34,"x_max":1037,"o":"m 34 14 l 117 87 l 424 838 l 363 912 l 531 1076 l 545 1076 l 955 87 l 1037 14 l 1037 0 l 585 0 l 585 13 l 735 87 l 659 272 l 267 272 l 191 87 l 341 14 l 341 0 l 34 0 l 34 14 m 632 336 l 462 745 l 294 336 l 632 336 m 325 1289 l 752 1289 l 752 1193 l 538 1227 l 325 1193 l 325 1289 z "},"Ą":{"ha":1071,"x_min":34,"x_max":1037,"o":"m 34 14 l 117 87 l 424 838 l 363 912 l 531 1076 l 545 1076 l 955 87 l 1037 14 l 1037 0 l 585 0 l 585 13 l 735 87 l 659 272 l 267 272 l 191 87 l 341 14 l 341 0 l 34 0 l 34 14 m 632 336 l 462 745 l 294 336 l 632 336 m 803 -254 q 755 -291 785 -278 q 692 -304 725 -304 q 633 -292 661 -304 q 589 -253 606 -279 q 572 -189 572 -227 q 592 -113 572 -151 q 648 -45 611 -75 q 736 0 685 -14 l 926 0 q 797 -26 848 0 q 722 -93 746 -53 q 699 -174 699 -133 q 715 -229 699 -211 q 761 -248 732 -248 q 795 -243 778 -248 l 803 -254 z "},"Å":{"ha":1071,"x_min":34,"x_max":1037,"o":"m 34 14 l 117 87 l 424 838 l 363 912 l 531 1076 l 545 1076 l 955 87 l 1037 14 l 1037 0 l 585 0 l 585 13 l 735 87 l 659 272 l 267 272 l 191 87 l 341 14 l 341 0 l 34 0 l 34 14 m 632 336 l 462 745 l 294 336 l 632 336 m 536 1131 q 470 1149 500 1131 q 422 1197 439 1166 q 404 1263 404 1227 q 422 1328 404 1298 q 470 1376 439 1358 q 536 1394 500 1394 q 603 1376 572 1394 q 650 1328 633 1358 q 668 1263 668 1298 q 650 1197 668 1227 q 603 1149 633 1166 q 536 1131 572 1131 m 573 1177 q 598 1208 589 1188 q 606 1250 606 1227 q 599 1289 606 1270 q 564 1332 589 1314 q 512 1350 538 1350 q 500 1348 508 1350 q 474 1317 483 1337 q 466 1275 466 1297 q 473 1236 466 1252 q 509 1193 485 1211 q 560 1175 534 1175 q 573 1177 565 1175 z "},"Ã":{"ha":1071,"x_min":34,"x_max":1037,"o":"m 34 14 l 117 87 l 424 838 l 363 912 l 531 1076 l 545 1076 l 955 87 l 1037 14 l 1037 0 l 585 0 l 585 13 l 735 87 l 659 272 l 267 272 l 191 87 l 341 14 l 341 0 l 34 0 l 34 14 m 632 336 l 462 745 l 294 336 l 632 336 m 410 1241 q 323 1208 366 1232 l 315 1217 q 376 1298 341 1270 q 460 1326 412 1326 q 511 1319 484 1326 l 665 1284 q 747 1318 705 1295 l 755 1310 q 694 1228 728 1255 q 611 1200 659 1200 q 560 1207 587 1200 l 410 1241 z "},"Æ":{"ha":1321,"x_min":34,"x_max":1274,"o":"m 34 14 l 117 87 l 617 966 l 526 1042 l 526 1055 l 1256 1055 l 1178 846 l 1165 846 l 1055 987 l 817 987 l 817 543 l 1154 591 l 1110 475 l 817 475 l 817 68 l 1054 68 l 1260 211 l 1274 211 l 1248 0 l 496 0 l 496 14 l 617 90 l 617 272 l 292 272 l 186 87 l 315 14 l 315 0 l 34 0 l 34 14 m 617 339 l 617 843 l 330 339 l 617 339 z "},"Ǽ":{"ha":1321,"x_min":34,"x_max":1274,"o":"m 34 14 l 117 87 l 617 966 l 526 1042 l 526 1055 l 1256 1055 l 1178 846 l 1165 846 l 1055 987 l 817 987 l 817 543 l 1154 591 l 1110 475 l 817 475 l 817 68 l 1054 68 l 1260 211 l 1274 211 l 1248 0 l 496 0 l 496 14 l 617 90 l 617 272 l 292 272 l 186 87 l 315 14 l 315 0 l 34 0 l 34 14 m 617 339 l 617 843 l 330 339 l 617 339 m 949 1373 l 1137 1373 l 1137 1360 l 838 1150 l 823 1150 l 949 1373 z "},"Ǣ":{"ha":1321,"x_min":34,"x_max":1274,"o":"m 34 14 l 117 87 l 617 966 l 526 1042 l 526 1055 l 1256 1055 l 1178 846 l 1165 846 l 1055 987 l 817 987 l 817 543 l 1154 591 l 1110 475 l 817 475 l 817 68 l 1054 68 l 1260 211 l 1274 211 l 1248 0 l 496 0 l 496 14 l 617 90 l 617 272 l 292 272 l 186 87 l 315 14 l 315 0 l 34 0 l 34 14 m 617 339 l 617 843 l 330 339 l 617 339 m 669 1289 l 1096 1289 l 1096 1193 l 882 1227 l 669 1193 l 669 1289 z "},"B":{"ha":844,"x_min":47,"x_max":804,"o":"m 47 14 l 138 87 l 138 966 l 47 1042 l 47 1055 l 382 1055 q 573 1026 492 1055 q 699 941 654 998 q 744 802 744 884 q 718 695 744 744 q 645 613 692 646 q 538 569 598 581 q 669 527 608 562 q 767 435 730 493 q 804 300 804 376 q 750 139 804 207 q 602 36 697 71 q 382 0 507 0 l 47 0 l 47 14 m 359 598 q 451 621 409 598 q 519 688 494 644 q 545 793 545 732 q 519 898 545 854 q 451 964 494 942 q 359 987 409 987 l 337 987 l 337 598 l 359 598 m 359 68 q 473 94 420 68 q 558 171 526 120 q 590 292 590 221 q 558 423 590 370 q 473 503 526 477 q 359 530 420 530 l 337 530 l 337 68 l 359 68 z "},"C":{"ha":1001,"x_min":41,"x_max":960,"o":"m 585 -20 q 300 54 425 -20 q 109 252 176 127 q 41 529 41 377 q 109 805 41 680 q 300 1004 176 930 q 585 1077 425 1077 q 773 1059 685 1077 q 931 1004 861 1041 l 866 795 l 852 795 q 657 924 773 877 q 420 972 541 972 q 380 970 406 972 q 267 812 304 901 q 231 627 231 724 q 297 354 231 488 q 468 136 363 220 q 682 52 573 52 l 948 260 l 960 255 l 894 41 q 585 -20 768 -20 z "},"Ć":{"ha":1001,"x_min":41,"x_max":960,"o":"m 585 -20 q 300 54 425 -20 q 109 252 176 127 q 41 529 41 377 q 109 805 41 680 q 300 1004 176 930 q 585 1077 425 1077 q 773 1059 685 1077 q 931 1004 861 1041 l 866 795 l 852 795 q 657 924 773 877 q 420 972 541 972 q 380 970 406 972 q 267 812 304 901 q 231 627 231 724 q 297 354 231 488 q 468 136 363 220 q 682 52 573 52 l 948 260 l 960 255 l 894 41 q 585 -20 768 -20 m 628 1373 l 815 1373 l 815 1360 l 517 1150 l 502 1150 l 628 1373 z "},"Č":{"ha":1001,"x_min":41,"x_max":960,"o":"m 585 -20 q 300 54 425 -20 q 109 252 176 127 q 41 529 41 377 q 109 805 41 680 q 300 1004 176 930 q 585 1077 425 1077 q 773 1059 685 1077 q 931 1004 861 1041 l 866 795 l 852 795 q 657 924 773 877 q 420 972 541 972 q 380 970 406 972 q 267 812 304 901 q 231 627 231 724 q 297 354 231 488 q 468 136 363 220 q 682 52 573 52 l 948 260 l 960 255 l 894 41 q 585 -20 768 -20 m 370 1369 l 378 1378 l 589 1270 l 799 1378 l 807 1369 l 589 1130 l 370 1369 z "},"Ç":{"ha":1001,"x_min":41,"x_max":960,"o":"m 585 -20 q 300 54 425 -20 q 109 252 176 127 q 41 529 41 377 q 109 805 41 680 q 300 1004 176 930 q 585 1077 425 1077 q 773 1059 685 1077 q 931 1004 861 1041 l 866 795 l 852 795 q 657 924 773 877 q 420 972 541 972 q 380 970 406 972 q 267 812 304 901 q 231 627 231 724 q 297 354 231 488 q 468 136 363 220 q 682 52 573 52 l 948 260 l 960 255 l 894 41 q 585 -20 768 -20 m 538 -366 q 463 -350 497 -366 l 468 -338 q 480 -338 472 -338 q 552 -317 521 -338 q 583 -258 583 -296 q 573 -214 583 -231 q 544 -180 563 -198 q 520 -151 528 -163 q 512 -120 512 -139 q 527 -78 512 -98 q 570 -43 541 -58 q 565 -65 565 -54 q 576 -92 565 -81 q 613 -117 588 -102 q 639 -132 625 -123 q 701 -236 701 -174 q 658 -332 701 -297 q 538 -366 615 -366 z "},"Ċ":{"ha":1001,"x_min":41,"x_max":960,"o":"m 585 -20 q 300 54 425 -20 q 109 252 176 127 q 41 529 41 377 q 109 805 41 680 q 300 1004 176 930 q 585 1077 425 1077 q 773 1059 685 1077 q 931 1004 861 1041 l 866 795 l 852 795 q 657 924 773 877 q 420 972 541 972 q 380 970 406 972 q 267 812 304 901 q 231 627 231 724 q 297 354 231 488 q 468 136 363 220 q 682 52 573 52 l 948 260 l 960 255 l 894 41 q 585 -20 768 -20 m 474 1261 l 588 1375 l 701 1261 l 588 1149 l 474 1261 z "},"D":{"ha":1028,"x_min":41,"x_max":994,"o":"m 41 14 l 132 87 l 132 966 l 41 1042 l 41 1055 l 351 1055 q 697 996 553 1055 q 918 820 841 937 q 994 530 994 702 q 918 237 994 356 q 698 59 842 119 q 351 0 554 0 l 41 0 l 41 14 m 345 68 q 569 125 469 68 q 724 287 668 182 q 780 530 780 392 q 724 771 780 667 q 568 931 667 875 q 345 987 469 987 l 331 987 l 331 68 l 345 68 z "},"Ð":{"ha":1040,"x_min":41,"x_max":1006,"o":"m 363 1055 q 709 996 565 1055 q 930 820 853 937 q 1006 530 1006 702 q 930 237 1006 356 q 710 59 854 119 q 363 0 566 0 l 53 0 l 53 14 l 144 87 l 144 475 l 41 465 l 41 561 l 144 543 l 144 966 l 54 1042 l 54 1055 l 363 1055 m 357 68 q 581 125 481 68 q 736 287 680 182 q 792 530 792 392 q 736 771 792 667 q 581 931 680 875 q 357 987 481 987 l 343 987 l 343 543 l 404 543 l 577 557 l 577 461 l 404 475 l 343 475 l 343 68 l 357 68 z "},"Ď":{"ha":1028,"x_min":41,"x_max":994,"o":"m 41 14 l 132 87 l 132 966 l 41 1042 l 41 1055 l 351 1055 q 697 996 553 1055 q 918 820 841 937 q 994 530 994 702 q 918 237 994 356 q 698 59 842 119 q 351 0 554 0 l 41 0 l 41 14 m 345 68 q 569 125 469 68 q 724 287 668 182 q 780 530 780 392 q 724 771 780 667 q 568 931 667 875 q 345 987 469 987 l 331 987 l 331 68 l 345 68 m 224 1369 l 232 1378 l 443 1270 l 653 1378 l 661 1369 l 443 1130 l 224 1369 z "},"Đ":{"ha":1040,"x_min":41,"x_max":1006,"o":"m 363 1055 q 709 996 565 1055 q 930 820 853 937 q 1006 530 1006 702 q 930 237 1006 356 q 710 59 854 119 q 363 0 566 0 l 53 0 l 53 14 l 144 87 l 144 475 l 41 465 l 41 561 l 144 543 l 144 966 l 54 1042 l 54 1055 l 363 1055 m 357 68 q 581 125 481 68 q 736 287 680 182 q 792 530 792 392 q 736 771 792 667 q 581 931 680 875 q 357 987 481 987 l 343 987 l 343 543 l 404 543 l 577 557 l 577 461 l 404 475 l 343 475 l 343 68 l 357 68 z "},"E":{"ha":842,"x_min":47,"x_max":794,"o":"m 47 14 l 138 90 l 138 966 l 47 1042 l 47 1055 l 777 1055 l 699 846 l 686 846 l 576 987 l 337 987 l 337 543 l 674 591 l 631 475 l 337 475 l 337 68 l 574 68 l 781 211 l 794 211 l 768 0 l 47 0 l 47 14 z "},"É":{"ha":842,"x_min":47,"x_max":794,"o":"m 47 14 l 138 90 l 138 966 l 47 1042 l 47 1055 l 777 1055 l 699 846 l 686 846 l 576 987 l 337 987 l 337 543 l 674 591 l 631 475 l 337 475 l 337 68 l 574 68 l 781 211 l 794 211 l 768 0 l 47 0 l 47 14 m 472 1373 l 659 1373 l 659 1360 l 361 1150 l 346 1150 l 472 1373 z "},"Ě":{"ha":842,"x_min":47,"x_max":794,"o":"m 47 14 l 138 90 l 138 966 l 47 1042 l 47 1055 l 777 1055 l 699 846 l 686 846 l 576 987 l 337 987 l 337 543 l 674 591 l 631 475 l 337 475 l 337 68 l 574 68 l 781 211 l 794 211 l 768 0 l 47 0 l 47 14 m 222 1369 l 231 1378 l 441 1270 l 652 1378 l 660 1369 l 441 1130 l 222 1369 z "},"Ê":{"ha":842,"x_min":47,"x_max":794,"o":"m 47 14 l 138 90 l 138 966 l 47 1042 l 47 1055 l 777 1055 l 699 846 l 686 846 l 576 987 l 337 987 l 337 543 l 674 591 l 631 475 l 337 475 l 337 68 l 574 68 l 781 211 l 794 211 l 768 0 l 47 0 l 47 14 m 180 1155 l 399 1394 l 617 1155 l 609 1145 l 399 1254 l 188 1145 l 180 1155 z "},"Ë":{"ha":842,"x_min":47,"x_max":794,"o":"m 47 14 l 138 90 l 138 966 l 47 1042 l 47 1055 l 777 1055 l 699 846 l 686 846 l 576 987 l 337 987 l 337 543 l 674 591 l 631 475 l 337 475 l 337 68 l 574 68 l 781 211 l 794 211 l 768 0 l 47 0 l 47 14 m 192 1262 l 300 1369 l 409 1262 l 300 1154 l 192 1262 m 478 1262 l 587 1369 l 695 1262 l 587 1154 l 478 1262 z "},"Ė":{"ha":842,"x_min":47,"x_max":794,"o":"m 47 14 l 138 90 l 138 966 l 47 1042 l 47 1055 l 777 1055 l 699 846 l 686 846 l 576 987 l 337 987 l 337 543 l 674 591 l 631 475 l 337 475 l 337 68 l 574 68 l 781 211 l 794 211 l 768 0 l 47 0 l 47 14 m 342 1261 l 456 1375 l 569 1261 l 456 1149 l 342 1261 z "},"È":{"ha":842,"x_min":47,"x_max":794,"o":"m 47 14 l 138 90 l 138 966 l 47 1042 l 47 1055 l 777 1055 l 699 846 l 686 846 l 576 987 l 337 987 l 337 543 l 674 591 l 631 475 l 337 475 l 337 68 l 574 68 l 781 211 l 794 211 l 768 0 l 47 0 l 47 14 m 537 1150 l 239 1360 l 239 1373 l 426 1373 l 552 1150 l 537 1150 z "},"Ē":{"ha":842,"x_min":47,"x_max":794,"o":"m 47 14 l 138 90 l 138 966 l 47 1042 l 47 1055 l 777 1055 l 699 846 l 686 846 l 576 987 l 337 987 l 337 543 l 674 591 l 631 475 l 337 475 l 337 68 l 574 68 l 781 211 l 794 211 l 768 0 l 47 0 l 47 14 m 237 1289 l 665 1289 l 665 1193 l 451 1227 l 237 1193 l 237 1289 z "},"Ę":{"ha":842,"x_min":47,"x_max":794,"o":"m 47 14 l 138 90 l 138 966 l 47 1042 l 47 1055 l 777 1055 l 699 846 l 686 846 l 576 987 l 337 987 l 337 543 l 674 591 l 631 475 l 337 475 l 337 68 l 574 68 l 781 211 l 794 211 l 768 0 l 47 0 l 47 14 m 635 -254 q 587 -291 616 -278 q 524 -304 557 -304 q 465 -292 492 -304 q 421 -253 437 -279 q 404 -189 404 -227 q 424 -113 404 -151 q 480 -45 443 -75 q 568 0 517 -14 l 758 0 q 629 -26 680 0 q 554 -93 578 -53 q 530 -174 530 -133 q 547 -229 530 -211 q 593 -248 564 -248 q 627 -243 610 -248 l 635 -254 z "},"F":{"ha":825,"x_min":47,"x_max":778,"o":"m 47 14 l 139 87 l 139 966 l 49 1042 l 49 1055 l 778 1055 l 700 846 l 687 846 l 577 987 l 338 987 l 338 523 l 675 570 l 632 454 l 338 454 l 338 87 l 482 14 l 482 0 l 47 0 l 47 14 z "},"G":{"ha":1035,"x_min":41,"x_max":1001,"o":"m 585 -20 q 300 54 425 -20 q 109 252 176 127 q 41 529 41 377 q 109 805 41 680 q 300 1004 176 930 q 585 1077 425 1077 q 918 1004 782 1077 l 852 795 l 838 795 q 645 924 760 877 q 418 972 531 972 q 380 970 405 972 q 259 830 298 913 q 220 650 220 747 q 290 372 220 512 q 468 142 359 231 q 684 55 576 52 l 699 55 l 699 365 l 534 461 l 534 475 l 1001 475 l 1001 461 l 898 365 l 898 0 l 836 17 q 585 -20 728 -20 z "},"Ğ":{"ha":1035,"x_min":41,"x_max":1001,"o":"m 585 -20 q 300 54 425 -20 q 109 252 176 127 q 41 529 41 377 q 109 805 41 680 q 300 1004 176 930 q 585 1077 425 1077 q 918 1004 782 1077 l 852 795 l 838 795 q 645 924 760 877 q 418 972 531 972 q 380 970 405 972 q 259 830 298 913 q 220 650 220 747 q 290 372 220 512 q 468 142 359 231 q 684 55 576 52 l 699 55 l 699 365 l 534 461 l 534 475 l 1001 475 l 1001 461 l 898 365 l 898 0 l 836 17 q 585 -20 728 -20 m 627 1150 q 507 1180 557 1150 q 431 1253 457 1209 q 401 1339 405 1296 l 414 1339 q 489 1282 437 1305 q 627 1257 542 1259 q 769 1281 715 1259 q 840 1339 823 1302 l 852 1339 q 824 1252 850 1295 q 747 1179 798 1208 q 627 1150 697 1150 z "},"Ģ":{"ha":1035,"x_min":41,"x_max":1001,"o":"m 585 -20 q 300 54 425 -20 q 109 252 176 127 q 41 529 41 377 q 109 805 41 680 q 300 1004 176 930 q 585 1077 425 1077 q 918 1004 782 1077 l 852 795 l 838 795 q 645 924 760 877 q 418 972 531 972 q 380 970 405 972 q 259 830 298 913 q 220 650 220 747 q 290 372 220 512 q 468 142 359 231 q 684 55 576 52 l 699 55 l 699 365 l 534 461 l 534 475 l 1001 475 l 1001 461 l 898 365 l 898 0 l 836 17 q 585 -20 728 -20 m 551 -393 q 570 -307 570 -356 q 557 -230 570 -267 q 520 -165 545 -192 l 618 -64 q 684 -208 684 -135 q 645 -321 684 -271 q 560 -402 606 -371 l 551 -393 z "},"Ġ":{"ha":1035,"x_min":41,"x_max":1001,"o":"m 585 -20 q 300 54 425 -20 q 109 252 176 127 q 41 529 41 377 q 109 805 41 680 q 300 1004 176 930 q 585 1077 425 1077 q 918 1004 782 1077 l 852 795 l 838 795 q 645 924 760 877 q 418 972 531 972 q 380 970 405 972 q 259 830 298 913 q 220 650 220 747 q 290 372 220 512 q 468 142 359 231 q 684 55 576 52 l 699 55 l 699 365 l 534 461 l 534 475 l 1001 475 l 1001 461 l 898 365 l 898 0 l 836 17 q 585 -20 728 -20 m 487 1261 l 601 1375 l 714 1261 l 601 1149 l 487 1261 z "},"H":{"ha":1100,"x_min":54,"x_max":1046,"o":"m 54 14 l 144 87 l 144 966 l 56 1042 l 56 1055 l 484 1055 l 484 1042 l 343 966 l 343 598 l 758 598 l 758 966 l 616 1042 l 616 1055 l 1046 1055 l 1046 1042 l 958 966 l 958 87 l 1046 14 l 1046 0 l 617 0 l 617 14 l 758 87 l 758 530 l 343 530 l 343 87 l 485 14 l 485 0 l 54 0 l 54 14 z "},"Ħ":{"ha":1100,"x_min":54,"x_max":1046,"o":"m 54 14 l 144 87 l 144 966 l 56 1042 l 56 1055 l 484 1055 l 484 1042 l 343 966 l 343 807 l 758 807 l 758 966 l 616 1042 l 616 1055 l 1046 1055 l 1046 1042 l 958 966 l 958 87 l 1046 14 l 1046 0 l 617 0 l 617 14 l 758 87 l 758 530 l 343 530 l 343 87 l 485 14 l 485 0 l 54 0 l 54 14 m 758 598 l 758 739 l 343 739 l 343 598 l 758 598 z "},"I":{"ha":503,"x_min":61,"x_max":442,"o":"m 61 14 l 152 87 l 152 966 l 62 1042 l 62 1055 l 442 1055 l 442 1042 l 351 966 l 351 87 l 441 14 l 441 0 l 61 0 l 61 14 z "},"Í":{"ha":508,"x_min":61,"x_max":473,"o":"m 61 14 l 152 87 l 152 966 l 62 1042 l 62 1055 l 442 1055 l 442 1042 l 351 966 l 351 87 l 441 14 l 441 0 l 61 0 l 61 14 m 286 1373 l 473 1373 l 473 1360 l 175 1150 l 160 1150 l 286 1373 z "},"Î":{"ha":516,"x_min":39,"x_max":477,"o":"m 65 14 l 156 87 l 156 966 l 66 1042 l 66 1055 l 446 1055 l 446 1042 l 355 966 l 355 87 l 446 14 l 446 0 l 65 0 l 65 14 m 39 1155 l 258 1394 l 477 1155 l 469 1145 l 258 1254 l 47 1145 l 39 1155 z "},"Ï":{"ha":537,"x_min":17,"x_max":520,"o":"m 78 14 l 169 87 l 169 966 l 79 1042 l 79 1055 l 459 1055 l 459 1042 l 368 966 l 368 87 l 458 14 l 458 0 l 78 0 l 78 14 m 17 1262 l 125 1369 l 234 1262 l 125 1154 l 17 1262 m 303 1262 l 412 1369 l 520 1262 l 412 1154 l 303 1262 z "},"Ì":{"ha":507,"x_min":35,"x_max":446,"o":"m 65 14 l 156 87 l 156 966 l 66 1042 l 66 1055 l 446 1055 l 446 1042 l 355 966 l 355 87 l 446 14 l 446 0 l 65 0 l 65 14 m 333 1150 l 35 1360 l 35 1373 l 222 1373 l 348 1150 l 333 1150 z "},"Ī":{"ha":549,"x_min":61,"x_max":488,"o":"m 82 14 l 173 87 l 173 966 l 83 1042 l 83 1055 l 463 1055 l 463 1042 l 372 966 l 372 87 l 463 14 l 463 0 l 82 0 l 82 14 m 61 1289 l 488 1289 l 488 1193 l 275 1227 l 61 1193 l 61 1289 z "},"Į":{"ha":503,"x_min":61,"x_max":442,"o":"m 61 14 l 152 87 l 152 966 l 62 1042 l 62 1055 l 442 1055 l 442 1042 l 351 966 l 351 87 l 441 14 l 441 0 l 61 0 l 61 14 m 317 -254 q 269 -291 298 -278 q 206 -304 239 -304 q 147 -292 174 -304 q 103 -253 119 -279 q 86 -189 86 -227 q 105 -113 86 -151 q 162 -45 125 -75 q 250 0 199 -14 l 439 0 q 311 -26 362 0 q 236 -93 260 -53 q 212 -174 212 -133 q 229 -229 212 -211 q 275 -248 245 -248 q 309 -243 292 -248 l 317 -254 z "},"J":{"ha":486,"x_min":41,"x_max":418,"o":"m 45 14 q 149 34 111 14 q 202 99 186 54 q 218 219 218 143 l 218 966 l 74 1042 l 74 1055 l 418 1055 l 418 219 q 384 85 418 138 q 294 6 351 31 q 168 -20 238 -20 q 41 0 106 -20 l 45 14 z "},"K":{"ha":1012,"x_min":54,"x_max":971,"o":"m 54 14 l 145 87 l 145 966 l 55 1042 l 55 1055 l 436 1055 l 436 1042 l 345 966 l 345 443 l 701 966 l 597 1042 l 597 1055 l 861 1055 l 861 1042 l 785 966 l 504 553 l 719 419 l 892 87 l 971 14 l 971 0 l 713 0 l 458 487 l 345 321 l 345 87 l 488 14 l 488 0 l 54 0 l 54 14 z "},"L":{"ha":842,"x_min":47,"x_max":815,"o":"m 47 14 l 138 87 l 138 966 l 47 1042 l 47 1055 l 481 1055 l 481 1042 l 337 966 l 337 68 l 595 68 l 803 211 l 815 211 l 789 0 l 47 0 l 47 14 z "},"Ľ":{"ha":861,"x_min":39,"x_max":834,"o":"m 66 14 l 157 87 l 157 966 l 66 1042 l 66 1055 l 500 1055 l 500 1042 l 356 966 l 356 68 l 614 68 l 822 211 l 834 211 l 808 0 l 66 0 l 66 14 m 39 1369 l 47 1378 l 258 1270 l 469 1378 l 477 1369 l 258 1130 l 39 1369 z "},"Ŀ":{"ha":842,"x_min":47,"x_max":815,"o":"m 47 14 l 138 87 l 138 966 l 47 1042 l 47 1055 l 481 1055 l 481 1042 l 337 966 l 337 68 l 595 68 l 803 211 l 815 211 l 789 0 l 47 0 l 47 14 m 527 625 l 642 740 l 756 625 l 642 510 l 527 625 z "},"Ł":{"ha":891,"x_min":14,"x_max":864,"o":"m 864 211 l 838 0 l 96 0 l 96 14 l 186 87 l 186 403 l 14 344 l 14 443 l 186 475 l 186 966 l 96 1042 l 96 1055 l 530 1055 l 530 1042 l 386 966 l 386 528 l 570 576 l 743 635 l 743 536 l 570 505 l 386 456 l 386 68 l 644 68 l 852 211 l 864 211 z "},"M":{"ha":1344,"x_min":61,"x_max":1283,"o":"m 229 785 l 220 826 l 220 87 l 363 14 l 363 0 l 61 0 l 61 14 l 151 87 l 151 966 l 61 1042 l 61 1055 l 330 1055 l 646 317 l 964 1055 l 1283 1055 l 1283 1042 l 1192 966 l 1192 87 l 1283 14 l 1283 0 l 849 0 l 849 14 l 993 87 l 993 925 l 1000 966 l 685 231 l 745 155 l 587 -20 l 574 -20 l 229 785 z "},"N":{"ha":1061,"x_min":47,"x_max":1014,"o":"m 215 785 l 206 826 l 206 87 l 352 12 l 352 0 l 47 0 l 47 14 l 138 87 l 138 966 l 47 1042 l 47 1055 l 243 1055 l 855 358 l 855 966 l 711 1042 l 711 1055 l 1014 1055 l 1014 1042 l 924 966 l 924 280 l 1004 229 l 936 -20 l 922 -20 l 215 785 z "},"Ń":{"ha":1061,"x_min":47,"x_max":1014,"o":"m 215 785 l 206 826 l 206 87 l 352 12 l 352 0 l 47 0 l 47 14 l 138 87 l 138 966 l 47 1042 l 47 1055 l 243 1055 l 855 358 l 855 966 l 711 1042 l 711 1055 l 1014 1055 l 1014 1042 l 924 966 l 924 280 l 1004 229 l 936 -20 l 922 -20 l 215 785 m 576 1373 l 763 1373 l 763 1360 l 465 1150 l 450 1150 l 576 1373 z "},"Ň":{"ha":1061,"x_min":47,"x_max":1014,"o":"m 215 785 l 206 826 l 206 87 l 352 12 l 352 0 l 47 0 l 47 14 l 138 87 l 138 966 l 47 1042 l 47 1055 l 243 1055 l 855 358 l 855 966 l 711 1042 l 711 1055 l 1014 1055 l 1014 1042 l 924 966 l 924 280 l 1004 229 l 936 -20 l 922 -20 l 215 785 m 311 1369 l 319 1378 l 530 1270 l 740 1378 l 748 1369 l 530 1130 l 311 1369 z "},"Ņ":{"ha":1061,"x_min":47,"x_max":1014,"o":"m 215 785 l 206 826 l 206 87 l 352 12 l 352 0 l 47 0 l 47 14 l 138 87 l 138 966 l 47 1042 l 47 1055 l 243 1055 l 855 358 l 855 966 l 711 1042 l 711 1055 l 1014 1055 l 1014 1042 l 924 966 l 924 280 l 1004 229 l 936 -20 l 922 -20 l 215 785 m 499 -393 q 518 -307 518 -356 q 505 -230 518 -267 q 468 -165 492 -192 l 566 -64 q 632 -208 632 -135 q 593 -321 632 -271 q 508 -402 553 -371 l 499 -393 z "},"Ñ":{"ha":1061,"x_min":47,"x_max":1014,"o":"m 215 785 l 206 826 l 206 87 l 352 12 l 352 0 l 47 0 l 47 14 l 138 87 l 138 966 l 47 1042 l 47 1055 l 243 1055 l 855 358 l 855 966 l 711 1042 l 711 1055 l 1014 1055 l 1014 1042 l 924 966 l 924 280 l 1004 229 l 936 -20 l 922 -20 l 215 785 m 420 1241 q 334 1208 376 1232 l 326 1217 q 387 1298 351 1270 q 471 1326 422 1326 q 521 1319 494 1326 l 675 1284 q 757 1318 715 1295 l 765 1310 q 704 1228 739 1255 q 621 1200 669 1200 q 570 1207 597 1200 l 420 1241 z "},"O":{"ha":1156,"x_min":41,"x_max":1116,"o":"m 578 -20 q 297 54 420 -20 q 108 252 175 127 q 41 529 41 378 q 108 805 41 680 q 297 1004 175 930 q 578 1077 420 1077 q 859 1004 736 1077 q 1048 807 981 932 q 1116 529 1116 682 q 1048 252 1116 378 q 859 54 981 127 q 578 -20 736 -20 m 770 87 q 889 237 850 149 q 928 428 928 326 q 867 688 928 561 q 699 897 806 816 q 464 977 593 977 q 383 969 425 977 q 257 824 298 911 q 216 633 216 736 q 279 372 216 500 q 453 162 342 243 q 696 81 563 81 q 770 87 734 81 z "},"Ó":{"ha":1156,"x_min":41,"x_max":1116,"o":"m 578 -20 q 297 54 420 -20 q 108 252 175 127 q 41 529 41 378 q 108 805 41 680 q 297 1004 175 930 q 578 1077 420 1077 q 859 1004 736 1077 q 1048 807 981 932 q 1116 529 1116 682 q 1048 252 1116 378 q 859 54 981 127 q 578 -20 736 -20 m 770 87 q 889 237 850 149 q 928 428 928 326 q 867 688 928 561 q 699 897 806 816 q 464 977 593 977 q 383 969 425 977 q 257 824 298 911 q 216 633 216 736 q 279 372 216 500 q 453 162 342 243 q 696 81 563 81 q 770 87 734 81 m 567 1373 l 754 1373 l 754 1360 l 456 1150 l 441 1150 l 567 1373 z "},"Ô":{"ha":1156,"x_min":41,"x_max":1116,"o":"m 578 -20 q 297 54 420 -20 q 108 252 175 127 q 41 529 41 378 q 108 805 41 680 q 297 1004 175 930 q 578 1077 420 1077 q 859 1004 736 1077 q 1048 807 981 932 q 1116 529 1116 682 q 1048 252 1116 378 q 859 54 981 127 q 578 -20 736 -20 m 770 87 q 889 237 850 149 q 928 428 928 326 q 867 688 928 561 q 699 897 806 816 q 464 977 593 977 q 383 969 425 977 q 257 824 298 911 q 216 633 216 736 q 279 372 216 500 q 453 162 342 243 q 696 81 563 81 q 770 87 734 81 m 346 1155 l 565 1394 l 783 1155 l 775 1145 l 565 1254 l 354 1145 l 346 1155 z "},"Ö":{"ha":1156,"x_min":41,"x_max":1116,"o":"m 578 -20 q 297 54 420 -20 q 108 252 175 127 q 41 529 41 378 q 108 805 41 680 q 297 1004 175 930 q 578 1077 420 1077 q 859 1004 736 1077 q 1048 807 981 932 q 1116 529 1116 682 q 1048 252 1116 378 q 859 54 981 127 q 578 -20 736 -20 m 770 87 q 889 237 850 149 q 928 428 928 326 q 867 688 928 561 q 699 897 806 816 q 464 977 593 977 q 383 969 425 977 q 257 824 298 911 q 216 633 216 736 q 279 372 216 500 q 453 162 342 243 q 696 81 563 81 q 770 87 734 81 m 314 1262 l 422 1369 l 531 1262 l 422 1154 l 314 1262 m 600 1262 l 709 1369 l 817 1262 l 709 1154 l 600 1262 z "},"Ò":{"ha":1156,"x_min":41,"x_max":1116,"o":"m 578 -20 q 297 54 420 -20 q 108 252 175 127 q 41 529 41 378 q 108 805 41 680 q 297 1004 175 930 q 578 1077 420 1077 q 859 1004 736 1077 q 1048 807 981 932 q 1116 529 1116 682 q 1048 252 1116 378 q 859 54 981 127 q 578 -20 736 -20 m 770 87 q 889 237 850 149 q 928 428 928 326 q 867 688 928 561 q 699 897 806 816 q 464 977 593 977 q 383 969 425 977 q 257 824 298 911 q 216 633 216 736 q 279 372 216 500 q 453 162 342 243 q 696 81 563 81 q 770 87 734 81 m 673 1150 l 374 1360 l 374 1373 l 562 1373 l 688 1150 l 673 1150 z "},"Ő":{"ha":1156,"x_min":41,"x_max":1116,"o":"m 578 -20 q 297 54 420 -20 q 108 252 175 127 q 41 529 41 378 q 108 805 41 680 q 297 1004 175 930 q 578 1077 420 1077 q 859 1004 736 1077 q 1048 807 981 932 q 1116 529 1116 682 q 1048 252 1116 378 q 859 54 981 127 q 578 -20 736 -20 m 770 87 q 889 237 850 149 q 928 428 928 326 q 867 688 928 561 q 699 897 806 816 q 464 977 593 977 q 383 969 425 977 q 257 824 298 911 q 216 633 216 736 q 279 372 216 500 q 453 162 342 243 q 696 81 563 81 q 770 87 734 81 m 484 1373 l 668 1373 l 668 1360 l 399 1150 l 385 1150 l 484 1373 m 718 1373 l 902 1373 l 902 1360 l 633 1150 l 618 1150 l 718 1373 z "},"Ō":{"ha":1156,"x_min":41,"x_max":1116,"o":"m 578 -20 q 297 54 420 -20 q 108 252 175 127 q 41 529 41 378 q 108 805 41 680 q 297 1004 175 930 q 578 1077 420 1077 q 859 1004 736 1077 q 1048 807 981 932 q 1116 529 1116 682 q 1048 252 1116 378 q 859 54 981 127 q 578 -20 736 -20 m 770 87 q 889 237 850 149 q 928 428 928 326 q 867 688 928 561 q 699 897 806 816 q 464 977 593 977 q 383 969 425 977 q 257 824 298 911 q 216 633 216 736 q 279 372 216 500 q 453 162 342 243 q 696 81 563 81 q 770 87 734 81 m 352 1289 l 779 1289 l 779 1193 l 566 1227 l 352 1193 l 352 1289 z "},"Ø":{"ha":1156,"x_min":41,"x_max":1116,"o":"m 939 945 q 1069 762 1023 870 q 1116 529 1116 654 q 1048 252 1116 378 q 859 54 981 127 q 578 -20 736 -20 q 416 3 492 -20 q 277 66 340 25 l 275 64 l 163 -109 l 45 -109 l 214 115 q 86 298 131 191 q 41 529 41 406 q 108 805 41 680 q 297 1004 175 930 q 578 1077 420 1077 q 739 1056 663 1077 q 877 994 814 1034 l 986 1164 l 1104 1164 l 939 945 m 383 969 q 257 824 299 911 q 216 633 216 736 q 248 448 216 541 q 337 277 279 355 l 762 842 q 624 942 701 906 q 464 978 548 978 q 383 969 429 978 m 770 87 q 889 237 850 149 q 928 428 928 326 q 898 611 928 519 q 814 779 868 703 l 389 216 q 531 117 452 153 q 695 81 609 81 q 770 87 734 81 z "},"Õ":{"ha":1156,"x_min":41,"x_max":1116,"o":"m 578 -20 q 297 54 420 -20 q 108 252 175 127 q 41 529 41 378 q 108 805 41 680 q 297 1004 175 930 q 578 1077 420 1077 q 859 1004 736 1077 q 1048 807 981 932 q 1116 529 1116 682 q 1048 252 1116 378 q 859 54 981 127 q 578 -20 736 -20 m 770 87 q 889 237 850 149 q 928 428 928 326 q 867 688 928 561 q 699 897 806 816 q 464 977 593 977 q 383 969 425 977 q 257 824 298 911 q 216 633 216 736 q 279 372 216 500 q 453 162 342 243 q 696 81 563 81 q 770 87 734 81 m 432 1241 q 345 1208 387 1232 l 337 1217 q 398 1298 363 1270 q 482 1326 433 1326 q 532 1319 506 1326 l 686 1284 q 768 1318 727 1295 l 777 1310 q 715 1228 750 1255 q 633 1200 681 1200 q 582 1207 608 1200 l 432 1241 z "},"Œ":{"ha":1435,"x_min":41,"x_max":1388,"o":"m 578 -20 q 297 54 420 -20 q 108 252 175 127 q 41 529 41 378 q 108 805 41 680 q 297 1004 175 930 q 578 1077 420 1077 q 740 1055 663 1077 l 1370 1055 l 1292 846 l 1279 846 l 1169 987 l 930 987 l 930 543 l 1267 591 l 1224 475 l 930 475 l 930 68 l 1168 68 l 1374 211 l 1388 211 l 1362 0 l 731 0 q 578 -20 659 -20 m 731 871 q 609 942 675 917 q 471 967 543 967 q 387 958 429 967 q 257 810 300 899 q 214 619 214 722 q 275 369 214 491 q 445 171 336 248 q 684 94 553 94 q 731 96 710 94 l 731 871 z "},"P":{"ha":844,"x_min":47,"x_max":796,"o":"m 47 14 l 138 87 l 138 966 l 47 1042 l 47 1055 l 385 1055 q 604 1017 512 1055 q 746 902 696 979 q 796 713 796 825 q 742 522 796 600 q 584 406 687 445 q 337 367 481 367 l 337 87 l 481 14 l 481 0 l 47 0 l 47 14 m 357 435 q 471 469 420 435 q 552 565 522 502 q 582 713 582 627 q 552 860 582 798 q 471 954 522 922 q 357 987 420 987 l 337 987 l 337 435 l 357 435 z "},"Þ":{"ha":845,"x_min":61,"x_max":798,"o":"m 61 14 l 152 87 l 152 966 l 62 1042 l 62 1055 l 442 1055 l 442 1042 l 351 966 l 351 890 l 372 890 q 596 852 500 890 q 745 741 692 814 q 798 563 798 667 q 745 382 798 458 q 595 268 692 307 q 372 229 499 229 l 351 229 l 351 87 l 441 14 l 441 0 l 61 0 l 61 14 m 365 300 q 487 331 435 300 q 566 420 538 362 q 593 557 593 479 q 566 696 593 636 q 487 789 538 756 q 365 822 435 822 l 351 822 l 351 300 l 365 300 z "},"Q":{"ha":1286,"x_min":47,"x_max":1279,"o":"m 585 -20 q 304 54 427 -20 q 115 252 182 127 q 47 529 47 378 q 115 805 47 680 q 304 1004 182 930 q 585 1077 427 1077 q 865 1004 743 1077 q 1055 807 987 932 q 1122 529 1122 682 q 1095 346 1122 432 q 1015 191 1067 260 q 1117 63 1046 109 q 1275 14 1187 17 l 1279 0 q 1212 -13 1261 -5 q 1105 -20 1162 -20 q 848 45 945 -20 q 585 -20 730 -20 m 799 97 q 748 196 770 130 q 725 315 726 262 l 953 315 q 967 419 967 366 q 898 671 967 545 q 712 878 828 798 q 464 959 595 959 q 347 941 404 959 q 247 808 279 884 q 214 646 214 732 q 283 384 214 513 q 470 172 353 254 q 722 90 587 90 q 799 97 758 90 z "},"R":{"ha":970,"x_min":54,"x_max":923,"o":"m 54 14 l 144 87 l 144 966 l 54 1042 l 54 1055 l 385 1055 q 602 1017 507 1055 q 750 908 697 979 q 803 746 803 838 q 768 609 803 670 q 675 507 733 547 q 551 452 618 467 l 714 351 l 844 87 l 923 14 l 923 0 l 671 0 l 445 432 q 344 428 397 428 l 344 87 l 488 14 l 488 0 l 54 0 l 54 14 m 361 496 q 476 526 425 496 q 558 611 528 555 q 589 743 589 667 q 558 874 589 819 q 476 958 528 929 q 361 987 425 987 l 344 987 l 344 496 l 361 496 z "},"Ŕ":{"ha":970,"x_min":54,"x_max":923,"o":"m 54 14 l 144 87 l 144 966 l 54 1042 l 54 1055 l 385 1055 q 602 1017 507 1055 q 750 908 697 979 q 803 746 803 838 q 768 609 803 670 q 675 507 733 547 q 551 452 618 467 l 714 351 l 844 87 l 923 14 l 923 0 l 671 0 l 445 432 q 344 428 397 428 l 344 87 l 488 14 l 488 0 l 54 0 l 54 14 m 361 496 q 476 526 425 496 q 558 611 528 555 q 589 743 589 667 q 558 874 589 819 q 476 958 528 929 q 361 987 425 987 l 344 987 l 344 496 l 361 496 m 471 1373 l 658 1373 l 658 1360 l 359 1150 l 345 1150 l 471 1373 z "},"Ř":{"ha":970,"x_min":54,"x_max":923,"o":"m 54 14 l 144 87 l 144 966 l 54 1042 l 54 1055 l 385 1055 q 602 1017 507 1055 q 750 908 697 979 q 803 746 803 838 q 768 609 803 670 q 675 507 733 547 q 551 452 618 467 l 714 351 l 844 87 l 923 14 l 923 0 l 671 0 l 445 432 q 344 428 397 428 l 344 87 l 488 14 l 488 0 l 54 0 l 54 14 m 361 496 q 476 526 425 496 q 558 611 528 555 q 589 743 589 667 q 558 874 589 819 q 476 958 528 929 q 361 987 425 987 l 344 987 l 344 496 l 361 496 m 210 1369 l 218 1378 l 429 1270 l 639 1378 l 647 1369 l 429 1130 l 210 1369 z "},"Ŗ":{"ha":970,"x_min":54,"x_max":923,"o":"m 54 14 l 144 87 l 144 966 l 54 1042 l 54 1055 l 385 1055 q 602 1017 507 1055 q 750 908 697 979 q 803 746 803 838 q 768 609 803 670 q 675 507 733 547 q 551 452 618 467 l 714 351 l 844 87 l 923 14 l 923 0 l 671 0 l 445 432 q 344 428 397 428 l 344 87 l 488 14 l 488 0 l 54 0 l 54 14 m 361 496 q 476 526 425 496 q 558 611 528 555 q 589 743 589 667 q 558 874 589 819 q 476 958 528 929 q 361 987 425 987 l 344 987 l 344 496 l 361 496 m 486 -393 q 505 -307 505 -356 q 492 -230 505 -267 q 454 -165 479 -192 l 553 -64 q 618 -208 618 -135 q 579 -321 618 -271 q 494 -402 540 -371 l 486 -393 z "},"S":{"ha":778,"x_min":47,"x_max":730,"o":"m 360 -20 q 47 41 174 -20 l 103 218 l 117 218 l 316 47 q 486 84 425 47 q 547 188 547 120 q 521 277 547 233 q 433 369 494 320 q 268 477 372 418 q 107 615 158 539 q 57 783 57 691 q 98 932 57 865 q 215 1037 139 999 q 391 1076 291 1076 q 550 1057 475 1076 q 682 1002 625 1038 l 618 795 l 604 795 l 418 1007 q 269 971 326 1007 q 212 869 212 936 q 236 783 212 821 q 313 703 259 744 q 465 606 366 663 q 666 436 601 527 q 730 258 730 346 q 685 113 730 176 q 556 15 640 50 q 360 -20 473 -20 z "},"Ś":{"ha":778,"x_min":47,"x_max":730,"o":"m 360 -20 q 47 41 174 -20 l 103 218 l 117 218 l 316 47 q 486 84 425 47 q 547 188 547 120 q 521 277 547 233 q 433 369 494 320 q 268 477 372 418 q 107 615 158 539 q 57 783 57 691 q 98 932 57 865 q 215 1037 139 999 q 391 1076 291 1076 q 550 1057 475 1076 q 682 1002 625 1038 l 618 795 l 604 795 l 418 1007 q 269 971 326 1007 q 212 869 212 936 q 236 783 212 821 q 313 703 259 744 q 465 606 366 663 q 666 436 601 527 q 730 258 730 346 q 685 113 730 176 q 556 15 640 50 q 360 -20 473 -20 m 414 1373 l 602 1373 l 602 1360 l 303 1150 l 288 1150 l 414 1373 z "},"Š":{"ha":778,"x_min":47,"x_max":730,"o":"m 360 -20 q 47 41 174 -20 l 103 218 l 117 218 l 316 47 q 486 84 425 47 q 547 188 547 120 q 521 277 547 233 q 433 369 494 320 q 268 477 372 418 q 107 615 158 539 q 57 783 57 691 q 98 932 57 865 q 215 1037 139 999 q 391 1076 291 1076 q 550 1057 475 1076 q 682 1002 625 1038 l 618 795 l 604 795 l 418 1007 q 269 971 326 1007 q 212 869 212 936 q 236 783 212 821 q 313 703 259 744 q 465 606 366 663 q 666 436 601 527 q 730 258 730 346 q 685 113 730 176 q 556 15 640 50 q 360 -20 473 -20 m 150 1369 l 158 1378 l 369 1270 l 579 1378 l 587 1369 l 369 1130 l 150 1369 z "},"Ş":{"ha":778,"x_min":47,"x_max":730,"o":"m 360 -20 q 47 41 174 -20 l 103 218 l 117 218 l 316 47 q 486 84 425 47 q 547 188 547 120 q 521 277 547 233 q 433 369 494 320 q 268 477 372 418 q 107 615 158 539 q 57 783 57 691 q 98 932 57 865 q 215 1037 139 999 q 391 1076 291 1076 q 550 1057 475 1076 q 682 1002 625 1038 l 618 795 l 604 795 l 418 1007 q 269 971 326 1007 q 212 869 212 936 q 236 783 212 821 q 313 703 259 744 q 465 606 366 663 q 666 436 601 527 q 730 258 730 346 q 685 113 730 176 q 556 15 640 50 q 360 -20 473 -20 m 353 -366 q 277 -350 311 -366 l 282 -338 q 294 -338 286 -338 q 366 -317 335 -338 q 397 -258 397 -296 q 387 -214 397 -231 q 358 -180 377 -198 q 334 -151 342 -163 q 326 -120 326 -139 q 341 -78 326 -98 q 385 -43 355 -58 q 379 -65 379 -54 q 391 -92 379 -81 q 427 -117 402 -102 q 453 -132 439 -123 q 515 -236 515 -174 q 472 -332 515 -297 q 353 -366 429 -366 z "},"ẞ":{"ha":1032,"x_min":61,"x_max":991,"o":"m 61 14 l 152 87 l 152 741 q 243 977 152 899 q 514 1055 335 1055 l 924 1055 l 663 68 l 753 68 l 977 210 l 991 210 l 953 0 l 438 0 l 701 987 l 514 987 q 392 928 433 987 q 351 741 351 869 l 351 0 l 61 0 l 61 14 z "},"T":{"ha":897,"x_min":47,"x_max":850,"o":"m 250 14 l 340 87 l 340 987 q 189 940 262 976 q 62 849 116 903 l 47 849 l 114 1055 l 850 1055 l 783 849 l 769 849 q 669 936 732 898 q 539 987 607 973 l 539 87 l 629 14 l 629 0 l 250 0 l 250 14 z "},"Ť":{"ha":897,"x_min":47,"x_max":850,"o":"m 250 14 l 340 87 l 340 987 q 189 940 262 976 q 62 849 116 903 l 47 849 l 114 1055 l 850 1055 l 783 849 l 769 849 q 669 936 732 898 q 539 987 607 973 l 539 87 l 629 14 l 629 0 l 250 0 l 250 14 m 231 1369 l 239 1378 l 450 1270 l 661 1378 l 669 1369 l 450 1130 l 231 1369 z "},"Ţ":{"ha":897,"x_min":47,"x_max":850,"o":"m 250 14 l 340 87 l 340 987 q 189 940 262 976 q 62 849 116 903 l 47 849 l 114 1055 l 850 1055 l 783 849 l 769 849 q 669 936 732 898 q 539 987 607 973 l 539 87 l 629 14 l 629 0 l 250 0 l 250 14 m 418 -366 q 343 -350 377 -366 l 348 -338 q 360 -338 352 -338 q 432 -317 401 -338 q 463 -258 463 -296 q 453 -214 463 -231 q 424 -180 443 -198 q 400 -151 408 -163 q 392 -120 392 -139 q 407 -78 392 -98 q 450 -43 421 -58 q 445 -65 445 -54 q 456 -92 445 -81 q 493 -117 468 -102 q 519 -132 505 -123 q 581 -236 581 -174 q 538 -332 581 -297 q 418 -366 495 -366 z "},"U":{"ha":1107,"x_min":41,"x_max":1066,"o":"m 469 -21 q 288 21 364 -21 q 171 139 212 64 q 131 313 131 215 l 131 966 l 41 1042 l 41 1055 l 474 1055 l 474 1042 l 330 966 l 330 311 q 357 182 330 235 q 432 101 385 128 q 539 73 479 73 q 669 99 604 73 q 777 172 733 125 l 777 966 l 633 1042 l 633 1055 l 1066 1055 l 1066 1042 l 976 966 l 976 87 l 1066 14 l 1066 0 l 797 0 l 777 81 q 644 6 723 33 q 469 -21 566 -21 z "},"Ú":{"ha":1107,"x_min":41,"x_max":1066,"o":"m 469 -21 q 288 21 364 -21 q 171 139 212 64 q 131 313 131 215 l 131 966 l 41 1042 l 41 1055 l 474 1055 l 474 1042 l 330 966 l 330 311 q 357 182 330 235 q 432 101 385 128 q 539 73 479 73 q 669 99 604 73 q 777 172 733 125 l 777 966 l 633 1042 l 633 1055 l 1066 1055 l 1066 1042 l 976 966 l 976 87 l 1066 14 l 1066 0 l 797 0 l 777 81 q 644 6 723 33 q 469 -21 566 -21 m 570 1373 l 757 1373 l 757 1360 l 458 1150 l 444 1150 l 570 1373 z "},"Û":{"ha":1107,"x_min":41,"x_max":1066,"o":"m 469 -21 q 288 21 364 -21 q 171 139 212 64 q 131 313 131 215 l 131 966 l 41 1042 l 41 1055 l 474 1055 l 474 1042 l 330 966 l 330 311 q 357 182 330 235 q 432 101 385 128 q 539 73 479 73 q 669 99 604 73 q 777 172 733 125 l 777 966 l 633 1042 l 633 1055 l 1066 1055 l 1066 1042 l 976 966 l 976 87 l 1066 14 l 1066 0 l 797 0 l 777 81 q 644 6 723 33 q 469 -21 566 -21 m 336 1155 l 555 1394 l 773 1155 l 765 1145 l 555 1254 l 344 1145 l 336 1155 z "},"Ü":{"ha":1107,"x_min":41,"x_max":1066,"o":"m 469 -21 q 288 21 364 -21 q 171 139 212 64 q 131 313 131 215 l 131 966 l 41 1042 l 41 1055 l 474 1055 l 474 1042 l 330 966 l 330 311 q 357 182 330 235 q 432 101 385 128 q 539 73 479 73 q 669 99 604 73 q 777 172 733 125 l 777 966 l 633 1042 l 633 1055 l 1066 1055 l 1066 1042 l 976 966 l 976 87 l 1066 14 l 1066 0 l 797 0 l 777 81 q 644 6 723 33 q 469 -21 566 -21 m 304 1262 l 412 1369 l 521 1262 l 412 1154 l 304 1262 m 590 1262 l 699 1369 l 807 1262 l 699 1154 l 590 1262 z "},"Ù":{"ha":1107,"x_min":41,"x_max":1066,"o":"m 469 -21 q 288 21 364 -21 q 171 139 212 64 q 131 313 131 215 l 131 966 l 41 1042 l 41 1055 l 474 1055 l 474 1042 l 330 966 l 330 311 q 357 182 330 235 q 432 101 385 128 q 539 73 479 73 q 669 99 604 73 q 777 172 733 125 l 777 966 l 633 1042 l 633 1055 l 1066 1055 l 1066 1042 l 976 966 l 976 87 l 1066 14 l 1066 0 l 797 0 l 777 81 q 644 6 723 33 q 469 -21 566 -21 m 657 1150 l 359 1360 l 359 1373 l 546 1373 l 672 1150 l 657 1150 z "},"Ű":{"ha":1107,"x_min":41,"x_max":1066,"o":"m 469 -21 q 288 21 364 -21 q 171 139 212 64 q 131 313 131 215 l 131 966 l 41 1042 l 41 1055 l 474 1055 l 474 1042 l 330 966 l 330 311 q 357 182 330 235 q 432 101 385 128 q 539 73 479 73 q 669 99 604 73 q 777 172 733 125 l 777 966 l 633 1042 l 633 1055 l 1066 1055 l 1066 1042 l 976 966 l 976 87 l 1066 14 l 1066 0 l 797 0 l 777 81 q 644 6 723 33 q 469 -21 566 -21 m 450 1373 l 633 1373 l 633 1360 l 365 1150 l 350 1150 l 450 1373 m 684 1373 l 867 1373 l 867 1360 l 599 1150 l 584 1150 l 684 1373 z "},"Ū":{"ha":1107,"x_min":41,"x_max":1066,"o":"m 469 -21 q 288 21 364 -21 q 171 139 212 64 q 131 313 131 215 l 131 966 l 41 1042 l 41 1055 l 474 1055 l 474 1042 l 330 966 l 330 311 q 357 182 330 235 q 432 101 385 128 q 539 73 479 73 q 669 99 604 73 q 777 172 733 125 l 777 966 l 633 1042 l 633 1055 l 1066 1055 l 1066 1042 l 976 966 l 976 87 l 1066 14 l 1066 0 l 797 0 l 777 81 q 644 6 723 33 q 469 -21 566 -21 m 342 1289 l 769 1289 l 769 1193 l 555 1227 l 342 1193 l 342 1289 z "},"Ų":{"ha":1107,"x_min":41,"x_max":1066,"o":"m 607 -237 q 559 -286 591 -268 q 490 -303 527 -303 q 429 -290 457 -303 q 384 -249 401 -276 q 366 -184 366 -222 q 395 -93 366 -138 q 474 -21 423 -48 l 453 -21 q 377 -12 401 -19 q 244 51 300 5 q 160 163 189 96 q 131 313 131 230 l 131 966 l 41 1042 l 41 1055 l 474 1055 l 474 1042 l 330 966 l 330 311 q 357 182 330 235 q 432 101 385 128 q 539 73 479 73 q 669 99 604 73 q 777 172 733 125 l 777 966 l 633 1042 l 633 1055 l 1066 1055 l 1066 1042 l 976 966 l 976 87 l 1066 14 l 1066 0 l 797 0 l 777 81 q 618 0 699 52 q 526 -83 559 -37 q 492 -173 492 -129 q 509 -229 492 -210 q 555 -248 526 -248 q 607 -237 578 -248 z "},"Ů":{"ha":1107,"x_min":41,"x_max":1066,"o":"m 469 -21 q 288 21 364 -21 q 171 139 212 64 q 131 313 131 215 l 131 966 l 41 1042 l 41 1055 l 474 1055 l 474 1042 l 330 966 l 330 311 q 357 182 330 235 q 432 101 385 128 q 539 73 479 73 q 669 99 604 73 q 777 172 733 125 l 777 966 l 633 1042 l 633 1055 l 1066 1055 l 1066 1042 l 976 966 l 976 87 l 1066 14 l 1066 0 l 797 0 l 777 81 q 644 6 723 33 q 469 -21 566 -21 m 566 1131 q 500 1149 530 1131 q 452 1197 469 1166 q 434 1263 434 1227 q 452 1328 434 1298 q 500 1376 469 1358 q 566 1394 530 1394 q 632 1376 602 1394 q 680 1328 663 1358 q 698 1263 698 1298 q 680 1197 698 1227 q 632 1149 663 1166 q 566 1131 602 1131 m 603 1177 q 628 1208 619 1188 q 636 1250 636 1227 q 629 1289 636 1270 q 593 1332 618 1314 q 542 1350 568 1350 q 530 1348 538 1350 q 504 1317 513 1337 q 496 1275 496 1297 q 503 1236 496 1252 q 539 1193 515 1211 q 590 1175 564 1175 q 603 1177 595 1175 z "},"V":{"ha":1066,"x_min":41,"x_max":1025,"o":"m 123 966 l 41 1042 l 41 1055 l 473 1055 l 473 1042 l 322 966 l 594 298 l 868 966 l 716 1042 l 716 1055 l 1025 1055 l 1025 1042 l 943 966 l 538 -20 l 525 -20 l 123 966 z "},"W":{"ha":1551,"x_min":41,"x_max":1510,"o":"m 104 966 l 41 1042 l 41 1055 l 438 1055 l 438 1042 l 305 966 l 566 328 l 743 822 l 683 892 l 826 1076 l 841 1076 l 1143 327 l 1372 966 l 1234 1042 l 1234 1055 l 1510 1055 l 1510 1042 l 1445 966 l 1092 -20 l 1077 -20 l 779 720 l 513 -20 l 496 -20 l 104 966 z "},"Ẃ":{"ha":1551,"x_min":41,"x_max":1510,"o":"m 104 966 l 41 1042 l 41 1055 l 438 1055 l 438 1042 l 305 966 l 566 328 l 743 822 l 683 892 l 826 1076 l 841 1076 l 1143 327 l 1372 966 l 1234 1042 l 1234 1055 l 1510 1055 l 1510 1042 l 1445 966 l 1092 -20 l 1077 -20 l 779 720 l 513 -20 l 496 -20 l 104 966 m 861 1373 l 1048 1373 l 1048 1360 l 750 1150 l 735 1150 l 861 1373 z "},"Ẅ":{"ha":1551,"x_min":41,"x_max":1510,"o":"m 104 966 l 41 1042 l 41 1055 l 438 1055 l 438 1042 l 305 966 l 566 328 l 743 822 l 683 892 l 826 1076 l 841 1076 l 1143 327 l 1372 966 l 1234 1042 l 1234 1055 l 1510 1055 l 1510 1042 l 1445 966 l 1092 -20 l 1077 -20 l 779 720 l 513 -20 l 496 -20 l 104 966 m 581 1262 l 689 1369 l 798 1262 l 689 1154 l 581 1262 m 867 1262 l 976 1369 l 1084 1262 l 976 1154 l 867 1262 z "},"Ẁ":{"ha":1551,"x_min":41,"x_max":1510,"o":"m 104 966 l 41 1042 l 41 1055 l 438 1055 l 438 1042 l 305 966 l 566 328 l 743 822 l 683 892 l 826 1076 l 841 1076 l 1143 327 l 1372 966 l 1234 1042 l 1234 1055 l 1510 1055 l 1510 1042 l 1445 966 l 1092 -20 l 1077 -20 l 779 720 l 513 -20 l 496 -20 l 104 966 m 882 1150 l 584 1360 l 584 1373 l 771 1373 l 897 1150 l 882 1150 z "},"X":{"ha":1023,"x_min":47,"x_max":975,"o":"m 47 14 l 124 87 l 395 550 l 151 966 l 73 1042 l 73 1055 l 486 1055 l 486 1042 l 383 966 l 583 625 l 783 966 l 683 1042 l 683 1055 l 939 1055 l 939 1042 l 861 966 l 622 559 l 898 87 l 975 14 l 975 0 l 529 0 l 529 14 l 667 87 l 433 484 l 201 87 l 357 14 l 357 0 l 47 0 l 47 14 z "},"Y":{"ha":974,"x_min":34,"x_max":940,"o":"m 298 13 l 388 87 l 388 430 l 115 966 l 34 1042 l 34 1055 l 492 1055 l 492 1042 l 338 966 l 560 530 l 783 966 l 629 1042 l 629 1055 l 940 1055 l 940 1042 l 860 966 l 587 430 l 587 87 l 677 14 l 677 0 l 298 0 l 298 13 z "},"Ý":{"ha":974,"x_min":34,"x_max":940,"o":"m 298 13 l 388 87 l 388 430 l 115 966 l 34 1042 l 34 1055 l 492 1055 l 492 1042 l 338 966 l 560 530 l 783 966 l 629 1042 l 629 1055 l 940 1055 l 940 1042 l 860 966 l 587 430 l 587 87 l 677 14 l 677 0 l 298 0 l 298 13 m 583 1373 l 770 1373 l 770 1360 l 471 1150 l 456 1150 l 583 1373 z "},"Ÿ":{"ha":974,"x_min":34,"x_max":940,"o":"m 298 13 l 388 87 l 388 430 l 115 966 l 34 1042 l 34 1055 l 492 1055 l 492 1042 l 338 966 l 560 530 l 783 966 l 629 1042 l 629 1055 l 940 1055 l 940 1042 l 860 966 l 587 430 l 587 87 l 677 14 l 677 0 l 298 0 l 298 13 m 308 1262 l 416 1369 l 525 1262 l 416 1154 l 308 1262 m 594 1262 l 703 1369 l 811 1262 l 703 1154 l 594 1262 z "},"Ỳ":{"ha":974,"x_min":34,"x_max":940,"o":"m 298 13 l 388 87 l 388 430 l 115 966 l 34 1042 l 34 1055 l 492 1055 l 492 1042 l 338 966 l 560 530 l 783 966 l 629 1042 l 629 1055 l 940 1055 l 940 1042 l 860 966 l 587 430 l 587 87 l 677 14 l 677 0 l 298 0 l 298 13 m 606 1150 l 308 1360 l 308 1373 l 495 1373 l 621 1150 l 606 1150 z "},"Z":{"ha":949,"x_min":41,"x_max":908,"o":"m 41 14 l 591 987 l 321 987 l 97 845 l 83 845 l 121 1055 l 854 1055 l 854 1042 l 303 68 l 670 68 l 894 210 l 908 210 l 869 0 l 41 0 l 41 14 z "},"Ź":{"ha":949,"x_min":41,"x_max":908,"o":"m 41 14 l 591 987 l 321 987 l 97 845 l 83 845 l 121 1055 l 854 1055 l 854 1042 l 303 68 l 670 68 l 894 210 l 908 210 l 869 0 l 41 0 l 41 14 m 511 1373 l 699 1373 l 699 1360 l 400 1150 l 385 1150 l 511 1373 z "},"Ž":{"ha":949,"x_min":41,"x_max":908,"o":"m 41 14 l 591 987 l 321 987 l 97 845 l 83 845 l 121 1055 l 854 1055 l 854 1042 l 303 68 l 670 68 l 894 210 l 908 210 l 869 0 l 41 0 l 41 14 m 274 1369 l 282 1378 l 493 1270 l 703 1378 l 711 1369 l 493 1130 l 274 1369 z "},"Ż":{"ha":949,"x_min":41,"x_max":908,"o":"m 41 14 l 591 987 l 321 987 l 97 845 l 83 845 l 121 1055 l 854 1055 l 854 1042 l 303 68 l 670 68 l 894 210 l 908 210 l 869 0 l 41 0 l 41 14 m 368 1261 l 482 1375 l 595 1261 l 482 1149 l 368 1261 z "},"a":{"ha":1071,"x_min":34,"x_max":1037,"o":"m 34 14 l 117 87 l 424 838 l 363 912 l 531 1076 l 545 1076 l 955 87 l 1037 14 l 1037 0 l 585 0 l 585 13 l 735 87 l 659 272 l 267 272 l 191 87 l 341 14 l 341 0 l 34 0 l 34 14 m 632 336 l 462 745 l 294 336 l 632 336 z "},"á":{"ha":1071,"x_min":34,"x_max":1037,"o":"m 34 14 l 117 87 l 424 838 l 363 912 l 531 1076 l 545 1076 l 955 87 l 1037 14 l 1037 0 l 585 0 l 585 13 l 735 87 l 659 272 l 267 272 l 191 87 l 341 14 l 341 0 l 34 0 l 34 14 m 632 336 l 462 745 l 294 336 l 632 336 m 544 1373 l 731 1373 l 731 1360 l 433 1150 l 418 1150 l 544 1373 z "},"ă":{"ha":1071,"x_min":34,"x_max":1037,"o":"m 34 14 l 117 87 l 424 838 l 363 912 l 531 1076 l 545 1076 l 955 87 l 1037 14 l 1037 0 l 585 0 l 585 13 l 735 87 l 659 272 l 267 272 l 191 87 l 341 14 l 341 0 l 34 0 l 34 14 m 632 336 l 462 745 l 294 336 l 632 336 m 533 1150 q 413 1180 463 1150 q 337 1253 363 1209 q 308 1339 311 1296 l 320 1339 q 396 1282 343 1305 q 533 1257 448 1259 q 675 1281 622 1259 q 747 1339 729 1302 l 759 1339 q 730 1252 756 1295 q 654 1179 704 1208 q 533 1150 604 1150 z "},"â":{"ha":1071,"x_min":34,"x_max":1037,"o":"m 34 14 l 117 87 l 424 838 l 363 912 l 531 1076 l 545 1076 l 955 87 l 1037 14 l 1037 0 l 585 0 l 585 13 l 735 87 l 659 272 l 267 272 l 191 87 l 341 14 l 341 0 l 34 0 l 34 14 m 632 336 l 462 745 l 294 336 l 632 336 m 319 1155 l 538 1394 l 756 1155 l 748 1145 l 538 1254 l 327 1145 l 319 1155 z "},"ä":{"ha":1071,"x_min":34,"x_max":1037,"o":"m 34 14 l 117 87 l 424 838 l 363 912 l 531 1076 l 545 1076 l 955 87 l 1037 14 l 1037 0 l 585 0 l 585 13 l 735 87 l 659 272 l 267 272 l 191 87 l 341 14 l 341 0 l 34 0 l 34 14 m 632 336 l 462 745 l 294 336 l 632 336 m 286 1262 l 394 1369 l 503 1262 l 394 1154 l 286 1262 m 572 1262 l 681 1369 l 789 1262 l 681 1154 l 572 1262 z "},"à":{"ha":1071,"x_min":34,"x_max":1037,"o":"m 34 14 l 117 87 l 424 838 l 363 912 l 531 1076 l 545 1076 l 955 87 l 1037 14 l 1037 0 l 585 0 l 585 13 l 735 87 l 659 272 l 267 272 l 191 87 l 341 14 l 341 0 l 34 0 l 34 14 m 632 336 l 462 745 l 294 336 l 632 336 m 585 1150 l 287 1360 l 287 1373 l 474 1373 l 600 1150 l 585 1150 z "},"ā":{"ha":1071,"x_min":34,"x_max":1037,"o":"m 34 14 l 117 87 l 424 838 l 363 912 l 531 1076 l 545 1076 l 955 87 l 1037 14 l 1037 0 l 585 0 l 585 13 l 735 87 l 659 272 l 267 272 l 191 87 l 341 14 l 341 0 l 34 0 l 34 14 m 632 336 l 462 745 l 294 336 l 632 336 m 325 1289 l 752 1289 l 752 1193 l 538 1227 l 325 1193 l 325 1289 z "},"ą":{"ha":1071,"x_min":34,"x_max":1037,"o":"m 34 14 l 117 87 l 424 838 l 363 912 l 531 1076 l 545 1076 l 955 87 l 1037 14 l 1037 0 l 585 0 l 585 13 l 735 87 l 659 272 l 267 272 l 191 87 l 341 14 l 341 0 l 34 0 l 34 14 m 632 336 l 462 745 l 294 336 l 632 336 m 803 -254 q 755 -291 785 -278 q 692 -304 725 -304 q 633 -292 661 -304 q 589 -253 606 -279 q 572 -189 572 -227 q 592 -113 572 -151 q 648 -45 611 -75 q 736 0 685 -14 l 926 0 q 797 -26 848 0 q 722 -93 746 -53 q 699 -174 699 -133 q 715 -229 699 -211 q 761 -248 732 -248 q 795 -243 778 -248 l 803 -254 z "},"å":{"ha":1071,"x_min":34,"x_max":1037,"o":"m 34 14 l 117 87 l 424 838 l 363 912 l 531 1076 l 545 1076 l 955 87 l 1037 14 l 1037 0 l 585 0 l 585 13 l 735 87 l 659 272 l 267 272 l 191 87 l 341 14 l 341 0 l 34 0 l 34 14 m 632 336 l 462 745 l 294 336 l 632 336 m 536 1131 q 470 1149 500 1131 q 422 1197 439 1166 q 404 1263 404 1227 q 422 1328 404 1298 q 470 1376 439 1358 q 536 1394 500 1394 q 603 1376 572 1394 q 650 1328 633 1358 q 668 1263 668 1298 q 650 1197 668 1227 q 603 1149 633 1166 q 536 1131 572 1131 m 573 1177 q 598 1208 589 1188 q 606 1250 606 1227 q 599 1289 606 1270 q 564 1332 589 1314 q 512 1350 538 1350 q 500 1348 508 1350 q 474 1317 483 1337 q 466 1275 466 1297 q 473 1236 466 1252 q 509 1193 485 1211 q 560 1175 534 1175 q 573 1177 565 1175 z "},"ã":{"ha":1071,"x_min":34,"x_max":1037,"o":"m 34 14 l 117 87 l 424 838 l 363 912 l 531 1076 l 545 1076 l 955 87 l 1037 14 l 1037 0 l 585 0 l 585 13 l 735 87 l 659 272 l 267 272 l 191 87 l 341 14 l 341 0 l 34 0 l 34 14 m 632 336 l 462 745 l 294 336 l 632 336 m 410 1241 q 323 1208 366 1232 l 315 1217 q 376 1298 341 1270 q 460 1326 412 1326 q 511 1319 484 1326 l 665 1284 q 747 1318 705 1295 l 755 1310 q 694 1228 728 1255 q 611 1200 659 1200 q 560 1207 587 1200 l 410 1241 z "},"æ":{"ha":1321,"x_min":34,"x_max":1274,"o":"m 34 14 l 117 87 l 617 966 l 526 1042 l 526 1055 l 1256 1055 l 1178 846 l 1165 846 l 1055 987 l 817 987 l 817 543 l 1154 591 l 1110 475 l 817 475 l 817 68 l 1054 68 l 1260 211 l 1274 211 l 1248 0 l 496 0 l 496 14 l 617 90 l 617 272 l 292 272 l 186 87 l 315 14 l 315 0 l 34 0 l 34 14 m 617 339 l 617 843 l 330 339 l 617 339 z "},"ǽ":{"ha":1321,"x_min":34,"x_max":1274,"o":"m 34 14 l 117 87 l 617 966 l 526 1042 l 526 1055 l 1256 1055 l 1178 846 l 1165 846 l 1055 987 l 817 987 l 817 543 l 1154 591 l 1110 475 l 817 475 l 817 68 l 1054 68 l 1260 211 l 1274 211 l 1248 0 l 496 0 l 496 14 l 617 90 l 617 272 l 292 272 l 186 87 l 315 14 l 315 0 l 34 0 l 34 14 m 617 339 l 617 843 l 330 339 l 617 339 m 949 1373 l 1137 1373 l 1137 1360 l 838 1150 l 823 1150 l 949 1373 z "},"ǣ":{"ha":1321,"x_min":34,"x_max":1274,"o":"m 34 14 l 117 87 l 617 966 l 526 1042 l 526 1055 l 1256 1055 l 1178 846 l 1165 846 l 1055 987 l 817 987 l 817 543 l 1154 591 l 1110 475 l 817 475 l 817 68 l 1054 68 l 1260 211 l 1274 211 l 1248 0 l 496 0 l 496 14 l 617 90 l 617 272 l 292 272 l 186 87 l 315 14 l 315 0 l 34 0 l 34 14 m 617 339 l 617 843 l 330 339 l 617 339 m 669 1289 l 1096 1289 l 1096 1193 l 882 1227 l 669 1193 l 669 1289 z "},"b":{"ha":844,"x_min":47,"x_max":804,"o":"m 47 14 l 138 87 l 138 966 l 47 1042 l 47 1055 l 382 1055 q 573 1026 492 1055 q 699 941 654 998 q 744 802 744 884 q 718 695 744 744 q 645 613 692 646 q 538 569 598 581 q 669 527 608 562 q 767 435 730 493 q 804 300 804 376 q 750 139 804 207 q 602 36 697 71 q 382 0 507 0 l 47 0 l 47 14 m 359 598 q 451 621 409 598 q 519 688 494 644 q 545 793 545 732 q 519 898 545 854 q 451 964 494 942 q 359 987 409 987 l 337 987 l 337 598 l 359 598 m 359 68 q 473 94 420 68 q 558 171 526 120 q 590 292 590 221 q 558 423 590 370 q 473 503 526 477 q 359 530 420 530 l 337 530 l 337 68 l 359 68 z "},"c":{"ha":1001,"x_min":41,"x_max":960,"o":"m 585 -20 q 300 54 425 -20 q 109 252 176 127 q 41 529 41 377 q 109 805 41 680 q 300 1004 176 930 q 585 1077 425 1077 q 773 1059 685 1077 q 931 1004 861 1041 l 866 795 l 852 795 q 657 924 773 877 q 420 972 541 972 q 380 970 406 972 q 267 812 304 901 q 231 627 231 724 q 297 354 231 488 q 468 136 363 220 q 682 52 573 52 l 948 260 l 960 255 l 894 41 q 585 -20 768 -20 z "},"ć":{"ha":1001,"x_min":41,"x_max":960,"o":"m 585 -20 q 300 54 425 -20 q 109 252 176 127 q 41 529 41 377 q 109 805 41 680 q 300 1004 176 930 q 585 1077 425 1077 q 773 1059 685 1077 q 931 1004 861 1041 l 866 795 l 852 795 q 657 924 773 877 q 420 972 541 972 q 380 970 406 972 q 267 812 304 901 q 231 627 231 724 q 297 354 231 488 q 468 136 363 220 q 682 52 573 52 l 948 260 l 960 255 l 894 41 q 585 -20 768 -20 m 628 1373 l 815 1373 l 815 1360 l 517 1150 l 502 1150 l 628 1373 z "},"č":{"ha":1001,"x_min":41,"x_max":960,"o":"m 585 -20 q 300 54 425 -20 q 109 252 176 127 q 41 529 41 377 q 109 805 41 680 q 300 1004 176 930 q 585 1077 425 1077 q 773 1059 685 1077 q 931 1004 861 1041 l 866 795 l 852 795 q 657 924 773 877 q 420 972 541 972 q 380 970 406 972 q 267 812 304 901 q 231 627 231 724 q 297 354 231 488 q 468 136 363 220 q 682 52 573 52 l 948 260 l 960 255 l 894 41 q 585 -20 768 -20 m 370 1369 l 378 1378 l 589 1270 l 799 1378 l 807 1369 l 589 1130 l 370 1369 z "},"ç":{"ha":1001,"x_min":41,"x_max":960,"o":"m 585 -20 q 300 54 425 -20 q 109 252 176 127 q 41 529 41 377 q 109 805 41 680 q 300 1004 176 930 q 585 1077 425 1077 q 773 1059 685 1077 q 931 1004 861 1041 l 866 795 l 852 795 q 657 924 773 877 q 420 972 541 972 q 380 970 406 972 q 267 812 304 901 q 231 627 231 724 q 297 354 231 488 q 468 136 363 220 q 682 52 573 52 l 948 260 l 960 255 l 894 41 q 585 -20 768 -20 m 538 -366 q 463 -350 497 -366 l 468 -338 q 480 -338 472 -338 q 552 -317 521 -338 q 583 -258 583 -296 q 573 -214 583 -231 q 544 -180 563 -198 q 520 -151 528 -163 q 512 -120 512 -139 q 527 -78 512 -98 q 570 -43 541 -58 q 565 -65 565 -54 q 576 -92 565 -81 q 613 -117 588 -102 q 639 -132 625 -123 q 701 -236 701 -174 q 658 -332 701 -297 q 538 -366 615 -366 z "},"ċ":{"ha":1001,"x_min":41,"x_max":960,"o":"m 585 -20 q 300 54 425 -20 q 109 252 176 127 q 41 529 41 377 q 109 805 41 680 q 300 1004 176 930 q 585 1077 425 1077 q 773 1059 685 1077 q 931 1004 861 1041 l 866 795 l 852 795 q 657 924 773 877 q 420 972 541 972 q 380 970 406 972 q 267 812 304 901 q 231 627 231 724 q 297 354 231 488 q 468 136 363 220 q 682 52 573 52 l 948 260 l 960 255 l 894 41 q 585 -20 768 -20 m 474 1261 l 588 1375 l 701 1261 l 588 1149 l 474 1261 z "},"d":{"ha":1028,"x_min":41,"x_max":994,"o":"m 41 14 l 132 87 l 132 966 l 41 1042 l 41 1055 l 351 1055 q 697 996 553 1055 q 918 820 841 937 q 994 530 994 702 q 918 237 994 356 q 698 59 842 119 q 351 0 554 0 l 41 0 l 41 14 m 345 68 q 569 125 469 68 q 724 287 668 182 q 780 530 780 392 q 724 771 780 667 q 568 931 667 875 q 345 987 469 987 l 331 987 l 331 68 l 345 68 z "},"ď":{"ha":1028,"x_min":41,"x_max":994,"o":"m 41 14 l 132 87 l 132 966 l 41 1042 l 41 1055 l 351 1055 q 697 996 553 1055 q 918 820 841 937 q 994 530 994 702 q 918 237 994 356 q 698 59 842 119 q 351 0 554 0 l 41 0 l 41 14 m 345 68 q 569 125 469 68 q 724 287 668 182 q 780 530 780 392 q 724 771 780 667 q 568 931 667 875 q 345 987 469 987 l 331 987 l 331 68 l 345 68 m 224 1369 l 232 1378 l 443 1270 l 653 1378 l 661 1369 l 443 1130 l 224 1369 z "},"đ":{"ha":1040,"x_min":41,"x_max":1006,"o":"m 363 1055 q 709 996 565 1055 q 930 820 853 937 q 1006 530 1006 702 q 930 237 1006 356 q 710 59 854 119 q 363 0 566 0 l 53 0 l 53 14 l 144 87 l 144 475 l 41 465 l 41 561 l 144 543 l 144 966 l 54 1042 l 54 1055 l 363 1055 m 357 68 q 581 125 481 68 q 736 287 680 182 q 792 530 792 392 q 736 771 792 667 q 581 931 680 875 q 357 987 481 987 l 343 987 l 343 543 l 404 543 l 577 557 l 577 461 l 404 475 l 343 475 l 343 68 l 357 68 z "},"e":{"ha":842,"x_min":47,"x_max":794,"o":"m 47 14 l 138 90 l 138 966 l 47 1042 l 47 1055 l 777 1055 l 699 846 l 686 846 l 576 987 l 337 987 l 337 543 l 674 591 l 631 475 l 337 475 l 337 68 l 574 68 l 781 211 l 794 211 l 768 0 l 47 0 l 47 14 z "},"é":{"ha":842,"x_min":47,"x_max":794,"o":"m 47 14 l 138 90 l 138 966 l 47 1042 l 47 1055 l 777 1055 l 699 846 l 686 846 l 576 987 l 337 987 l 337 543 l 674 591 l 631 475 l 337 475 l 337 68 l 574 68 l 781 211 l 794 211 l 768 0 l 47 0 l 47 14 m 471 1373 l 659 1373 l 659 1360 l 360 1150 l 345 1150 l 471 1373 z "},"ě":{"ha":842,"x_min":47,"x_max":794,"o":"m 47 14 l 138 90 l 138 966 l 47 1042 l 47 1055 l 777 1055 l 699 846 l 686 846 l 576 987 l 337 987 l 337 543 l 674 591 l 631 475 l 337 475 l 337 68 l 574 68 l 781 211 l 794 211 l 768 0 l 47 0 l 47 14 m 222 1369 l 231 1378 l 441 1270 l 652 1378 l 660 1369 l 441 1130 l 222 1369 z "},"ê":{"ha":842,"x_min":47,"x_max":794,"o":"m 47 14 l 138 90 l 138 966 l 47 1042 l 47 1055 l 777 1055 l 699 846 l 686 846 l 576 987 l 337 987 l 337 543 l 674 591 l 631 475 l 337 475 l 337 68 l 574 68 l 781 211 l 794 211 l 768 0 l 47 0 l 47 14 m 180 1155 l 399 1394 l 617 1155 l 609 1145 l 399 1254 l 188 1145 l 180 1155 z "},"ë":{"ha":842,"x_min":47,"x_max":794,"o":"m 47 14 l 138 90 l 138 966 l 47 1042 l 47 1055 l 777 1055 l 699 846 l 686 846 l 576 987 l 337 987 l 337 543 l 674 591 l 631 475 l 337 475 l 337 68 l 574 68 l 781 211 l 794 211 l 768 0 l 47 0 l 47 14 m 192 1262 l 300 1369 l 409 1262 l 300 1154 l 192 1262 m 478 1262 l 587 1369 l 695 1262 l 587 1154 l 478 1262 z "},"ė":{"ha":842,"x_min":47,"x_max":794,"o":"m 47 14 l 138 90 l 138 966 l 47 1042 l 47 1055 l 777 1055 l 699 846 l 686 846 l 576 987 l 337 987 l 337 543 l 674 591 l 631 475 l 337 475 l 337 68 l 574 68 l 781 211 l 794 211 l 768 0 l 47 0 l 47 14 m 342 1261 l 456 1375 l 569 1261 l 456 1149 l 342 1261 z "},"è":{"ha":842,"x_min":47,"x_max":794,"o":"m 47 14 l 138 90 l 138 966 l 47 1042 l 47 1055 l 777 1055 l 699 846 l 686 846 l 576 987 l 337 987 l 337 543 l 674 591 l 631 475 l 337 475 l 337 68 l 574 68 l 781 211 l 794 211 l 768 0 l 47 0 l 47 14 m 537 1150 l 239 1360 l 239 1373 l 426 1373 l 552 1150 l 537 1150 z "},"ē":{"ha":842,"x_min":47,"x_max":794,"o":"m 47 14 l 138 90 l 138 966 l 47 1042 l 47 1055 l 777 1055 l 699 846 l 686 846 l 576 987 l 337 987 l 337 543 l 674 591 l 631 475 l 337 475 l 337 68 l 574 68 l 781 211 l 794 211 l 768 0 l 47 0 l 47 14 m 237 1289 l 665 1289 l 665 1193 l 451 1227 l 237 1193 l 237 1289 z "},"ę":{"ha":842,"x_min":47,"x_max":794,"o":"m 47 14 l 138 90 l 138 966 l 47 1042 l 47 1055 l 777 1055 l 699 846 l 686 846 l 576 987 l 337 987 l 337 543 l 674 591 l 631 475 l 337 475 l 337 68 l 574 68 l 781 211 l 794 211 l 768 0 l 47 0 l 47 14 m 635 -254 q 587 -291 616 -278 q 524 -304 557 -304 q 465 -292 492 -304 q 421 -253 437 -279 q 404 -189 404 -227 q 424 -113 404 -151 q 480 -45 443 -75 q 568 0 517 -14 l 758 0 q 629 -26 680 0 q 554 -93 578 -53 q 530 -174 530 -133 q 547 -229 530 -211 q 593 -248 564 -248 q 627 -243 610 -248 l 635 -254 z "},"f":{"ha":825,"x_min":47,"x_max":778,"o":"m 47 14 l 139 87 l 139 966 l 49 1042 l 49 1055 l 778 1055 l 700 846 l 687 846 l 577 987 l 338 987 l 338 523 l 675 570 l 632 454 l 338 454 l 338 87 l 482 14 l 482 0 l 47 0 l 47 14 z "},"g":{"ha":1035,"x_min":41,"x_max":1001,"o":"m 585 -20 q 300 54 425 -20 q 109 252 176 127 q 41 529 41 377 q 109 805 41 680 q 300 1004 176 930 q 585 1077 425 1077 q 918 1004 782 1077 l 852 795 l 838 795 q 645 924 760 877 q 418 972 531 972 q 380 970 405 972 q 259 830 298 913 q 220 650 220 747 q 290 372 220 512 q 468 142 359 231 q 684 55 576 52 l 699 55 l 699 365 l 534 461 l 534 475 l 1001 475 l 1001 461 l 898 365 l 898 0 l 836 17 q 585 -20 728 -20 z "},"ğ":{"ha":1035,"x_min":41,"x_max":1001,"o":"m 585 -20 q 300 54 425 -20 q 109 252 176 127 q 41 529 41 377 q 109 805 41 680 q 300 1004 176 930 q 585 1077 425 1077 q 918 1004 782 1077 l 852 795 l 838 795 q 645 924 760 877 q 418 972 531 972 q 380 970 405 972 q 259 830 298 913 q 220 650 220 747 q 290 372 220 512 q 468 142 359 231 q 684 55 576 52 l 699 55 l 699 365 l 534 461 l 534 475 l 1001 475 l 1001 461 l 898 365 l 898 0 l 836 17 q 585 -20 728 -20 m 627 1150 q 507 1180 557 1150 q 431 1253 457 1209 q 401 1339 405 1296 l 414 1339 q 489 1282 437 1305 q 627 1257 542 1259 q 769 1281 715 1259 q 840 1339 823 1302 l 852 1339 q 824 1252 850 1295 q 747 1179 798 1208 q 627 1150 697 1150 z "},"ģ":{"ha":1035,"x_min":41,"x_max":1001,"o":"m 585 -20 q 300 54 425 -20 q 109 252 176 127 q 41 529 41 377 q 109 805 41 680 q 300 1004 176 930 q 585 1077 425 1077 q 918 1004 782 1077 l 852 795 l 838 795 q 645 924 760 877 q 418 972 531 972 q 380 970 405 972 q 259 830 298 913 q 220 650 220 747 q 290 372 220 512 q 468 142 359 231 q 684 55 576 52 l 699 55 l 699 365 l 534 461 l 534 475 l 1001 475 l 1001 461 l 898 365 l 898 0 l 836 17 q 585 -20 728 -20 m 551 -393 q 570 -307 570 -356 q 557 -230 570 -267 q 520 -165 545 -192 l 618 -64 q 684 -208 684 -135 q 645 -321 684 -271 q 560 -402 606 -371 l 551 -393 z "},"ġ":{"ha":1035,"x_min":41,"x_max":1001,"o":"m 585 -20 q 300 54 425 -20 q 109 252 176 127 q 41 529 41 377 q 109 805 41 680 q 300 1004 176 930 q 585 1077 425 1077 q 918 1004 782 1077 l 852 795 l 838 795 q 645 924 760 877 q 418 972 531 972 q 380 970 405 972 q 259 830 298 913 q 220 650 220 747 q 290 372 220 512 q 468 142 359 231 q 684 55 576 52 l 699 55 l 699 365 l 534 461 l 534 475 l 1001 475 l 1001 461 l 898 365 l 898 0 l 836 17 q 585 -20 728 -20 m 487 1261 l 601 1375 l 714 1261 l 601 1149 l 487 1261 z "},"h":{"ha":1100,"x_min":54,"x_max":1046,"o":"m 54 14 l 144 87 l 144 966 l 56 1042 l 56 1055 l 484 1055 l 484 1042 l 343 966 l 343 598 l 758 598 l 758 966 l 616 1042 l 616 1055 l 1046 1055 l 1046 1042 l 958 966 l 958 87 l 1046 14 l 1046 0 l 617 0 l 617 14 l 758 87 l 758 530 l 343 530 l 343 87 l 485 14 l 485 0 l 54 0 l 54 14 z "},"ħ":{"ha":1131,"x_min":54,"x_max":1046,"o":"m 54 14 l 144 87 l 144 966 l 56 1042 l 56 1055 l 484 1055 l 484 1042 l 343 966 l 343 807 l 758 807 l 758 966 l 616 1042 l 616 1055 l 1046 1055 l 1046 1042 l 958 966 l 958 87 l 1046 14 l 1046 0 l 617 0 l 617 14 l 758 87 l 758 530 l 343 530 l 343 87 l 485 14 l 485 0 l 54 0 l 54 14 m 758 598 l 758 739 l 343 739 l 343 598 l 758 598 z "},"i":{"ha":503,"x_min":61,"x_max":442,"o":"m 61 14 l 152 87 l 152 966 l 62 1042 l 62 1055 l 442 1055 l 442 1042 l 351 966 l 351 87 l 441 14 l 441 0 l 61 0 l 61 14 z "},"ı":{"ha":503,"x_min":61,"x_max":441,"o":"m 61 14 l 152 87 l 152 1055 l 351 1055 l 351 87 l 441 14 l 441 0 l 61 0 l 61 14 z "},"í":{"ha":508,"x_min":61,"x_max":473,"o":"m 61 14 l 152 87 l 152 966 l 62 1042 l 62 1055 l 442 1055 l 442 1042 l 351 966 l 351 87 l 441 14 l 441 0 l 61 0 l 61 14 m 286 1373 l 473 1373 l 473 1360 l 175 1150 l 160 1150 l 286 1373 z "},"î":{"ha":516,"x_min":39,"x_max":477,"o":"m 65 14 l 156 87 l 156 966 l 66 1042 l 66 1055 l 446 1055 l 446 1042 l 355 966 l 355 87 l 446 14 l 446 0 l 65 0 l 65 14 m 39 1155 l 258 1394 l 477 1155 l 469 1145 l 258 1254 l 47 1145 l 39 1155 z "},"ï":{"ha":537,"x_min":17,"x_max":520,"o":"m 78 14 l 169 87 l 169 966 l 79 1042 l 79 1055 l 459 1055 l 459 1042 l 368 966 l 368 87 l 458 14 l 458 0 l 78 0 l 78 14 m 17 1262 l 125 1369 l 234 1262 l 125 1154 l 17 1262 m 303 1262 l 412 1369 l 520 1262 l 412 1154 l 303 1262 z "},"ì":{"ha":507,"x_min":35,"x_max":446,"o":"m 65 14 l 156 87 l 156 966 l 66 1042 l 66 1055 l 446 1055 l 446 1042 l 355 966 l 355 87 l 446 14 l 446 0 l 65 0 l 65 14 m 333 1150 l 35 1360 l 35 1373 l 222 1373 l 348 1150 l 333 1150 z "},"ī":{"ha":549,"x_min":61,"x_max":488,"o":"m 82 14 l 173 87 l 173 966 l 83 1042 l 83 1055 l 463 1055 l 463 1042 l 372 966 l 372 87 l 463 14 l 463 0 l 82 0 l 82 14 m 61 1289 l 488 1289 l 488 1193 l 275 1227 l 61 1193 l 61 1289 z "},"į":{"ha":503,"x_min":61,"x_max":442,"o":"m 61 14 l 152 87 l 152 966 l 62 1042 l 62 1055 l 442 1055 l 442 1042 l 351 966 l 351 87 l 441 14 l 441 0 l 61 0 l 61 14 m 317 -254 q 269 -291 298 -278 q 206 -304 239 -304 q 147 -292 174 -304 q 103 -253 119 -279 q 86 -189 86 -227 q 105 -113 86 -151 q 162 -45 125 -75 q 250 0 199 -14 l 439 0 q 311 -26 362 0 q 236 -93 260 -53 q 212 -174 212 -133 q 229 -229 212 -211 q 275 -248 245 -248 q 309 -243 292 -248 l 317 -254 z "},"j":{"ha":486,"x_min":41,"x_max":418,"o":"m 45 14 q 149 34 111 14 q 202 99 186 54 q 218 219 218 143 l 218 966 l 74 1042 l 74 1055 l 418 1055 l 418 219 q 384 85 418 138 q 294 6 351 31 q 168 -20 238 -20 q 41 0 106 -20 l 45 14 z "},"k":{"ha":1012,"x_min":54,"x_max":971,"o":"m 54 14 l 145 87 l 145 966 l 55 1042 l 55 1055 l 436 1055 l 436 1042 l 345 966 l 345 443 l 701 966 l 597 1042 l 597 1055 l 861 1055 l 861 1042 l 785 966 l 504 553 l 719 419 l 892 87 l 971 14 l 971 0 l 713 0 l 458 487 l 345 321 l 345 87 l 488 14 l 488 0 l 54 0 l 54 14 z "},"l":{"ha":842,"x_min":47,"x_max":815,"o":"m 47 14 l 138 87 l 138 966 l 47 1042 l 47 1055 l 481 1055 l 481 1042 l 337 966 l 337 68 l 595 68 l 803 211 l 815 211 l 789 0 l 47 0 l 47 14 z "},"ľ":{"ha":861,"x_min":39,"x_max":834,"o":"m 66 14 l 157 87 l 157 966 l 66 1042 l 66 1055 l 500 1055 l 500 1042 l 356 966 l 356 68 l 614 68 l 822 211 l 834 211 l 808 0 l 66 0 l 66 14 m 39 1369 l 47 1378 l 258 1270 l 469 1378 l 477 1369 l 258 1130 l 39 1369 z "},"ŀ":{"ha":842,"x_min":47,"x_max":815,"o":"m 47 14 l 138 87 l 138 966 l 47 1042 l 47 1055 l 481 1055 l 481 1042 l 337 966 l 337 68 l 595 68 l 803 211 l 815 211 l 789 0 l 47 0 l 47 14 m 527 625 l 642 740 l 756 625 l 642 510 l 527 625 z "},"ł":{"ha":891,"x_min":14,"x_max":864,"o":"m 864 211 l 838 0 l 96 0 l 96 14 l 186 87 l 186 403 l 14 344 l 14 443 l 186 475 l 186 966 l 96 1042 l 96 1055 l 530 1055 l 530 1042 l 386 966 l 386 528 l 570 576 l 743 635 l 743 536 l 570 505 l 386 456 l 386 68 l 644 68 l 852 211 l 864 211 z "},"m":{"ha":1344,"x_min":61,"x_max":1283,"o":"m 229 785 l 220 826 l 220 87 l 363 14 l 363 0 l 61 0 l 61 14 l 151 87 l 151 966 l 61 1042 l 61 1055 l 330 1055 l 646 317 l 964 1055 l 1283 1055 l 1283 1042 l 1192 966 l 1192 87 l 1283 14 l 1283 0 l 849 0 l 849 14 l 993 87 l 993 925 l 1000 966 l 685 231 l 745 155 l 587 -20 l 574 -20 l 229 785 z "},"n":{"ha":1061,"x_min":47,"x_max":1014,"o":"m 215 785 l 206 826 l 206 87 l 352 12 l 352 0 l 47 0 l 47 14 l 138 87 l 138 966 l 47 1042 l 47 1055 l 243 1055 l 855 358 l 855 966 l 711 1042 l 711 1055 l 1014 1055 l 1014 1042 l 924 966 l 924 280 l 1004 229 l 936 -20 l 922 -20 l 215 785 z "},"ń":{"ha":1061,"x_min":47,"x_max":1014,"o":"m 215 785 l 206 826 l 206 87 l 352 12 l 352 0 l 47 0 l 47 14 l 138 87 l 138 966 l 47 1042 l 47 1055 l 243 1055 l 855 358 l 855 966 l 711 1042 l 711 1055 l 1014 1055 l 1014 1042 l 924 966 l 924 280 l 1004 229 l 936 -20 l 922 -20 l 215 785 m 576 1373 l 763 1373 l 763 1360 l 465 1150 l 450 1150 l 576 1373 z "},"ň":{"ha":1061,"x_min":47,"x_max":1014,"o":"m 215 785 l 206 826 l 206 87 l 352 12 l 352 0 l 47 0 l 47 14 l 138 87 l 138 966 l 47 1042 l 47 1055 l 243 1055 l 855 358 l 855 966 l 711 1042 l 711 1055 l 1014 1055 l 1014 1042 l 924 966 l 924 280 l 1004 229 l 936 -20 l 922 -20 l 215 785 m 311 1369 l 319 1378 l 530 1270 l 740 1378 l 748 1369 l 530 1130 l 311 1369 z "},"ņ":{"ha":1061,"x_min":47,"x_max":1014,"o":"m 215 785 l 206 826 l 206 87 l 352 12 l 352 0 l 47 0 l 47 14 l 138 87 l 138 966 l 47 1042 l 47 1055 l 243 1055 l 855 358 l 855 966 l 711 1042 l 711 1055 l 1014 1055 l 1014 1042 l 924 966 l 924 280 l 1004 229 l 936 -20 l 922 -20 l 215 785 m 499 -393 q 518 -307 518 -356 q 505 -230 518 -267 q 468 -165 492 -192 l 566 -64 q 632 -208 632 -135 q 593 -321 632 -271 q 508 -402 553 -371 l 499 -393 z "},"ñ":{"ha":1061,"x_min":47,"x_max":1014,"o":"m 215 785 l 206 826 l 206 87 l 352 12 l 352 0 l 47 0 l 47 14 l 138 87 l 138 966 l 47 1042 l 47 1055 l 243 1055 l 855 358 l 855 966 l 711 1042 l 711 1055 l 1014 1055 l 1014 1042 l 924 966 l 924 280 l 1004 229 l 936 -20 l 922 -20 l 215 785 m 420 1241 q 334 1208 376 1232 l 326 1217 q 387 1298 351 1270 q 471 1326 422 1326 q 521 1319 494 1326 l 675 1284 q 757 1318 715 1295 l 765 1310 q 704 1228 739 1255 q 621 1200 669 1200 q 570 1207 597 1200 l 420 1241 z "},"o":{"ha":1156,"x_min":41,"x_max":1116,"o":"m 578 -20 q 297 54 420 -20 q 108 252 175 127 q 41 529 41 378 q 108 805 41 680 q 297 1004 175 930 q 578 1077 420 1077 q 859 1004 736 1077 q 1048 807 981 932 q 1116 529 1116 682 q 1048 252 1116 378 q 859 54 981 127 q 578 -20 736 -20 m 770 87 q 889 237 850 149 q 928 428 928 326 q 867 688 928 561 q 699 897 806 816 q 464 977 593 977 q 383 969 425 977 q 257 824 298 911 q 216 633 216 736 q 279 372 216 500 q 453 162 342 243 q 696 81 563 81 q 770 87 734 81 z "},"ó":{"ha":1156,"x_min":41,"x_max":1116,"o":"m 578 -20 q 297 54 420 -20 q 108 252 175 127 q 41 529 41 378 q 108 805 41 680 q 297 1004 175 930 q 578 1077 420 1077 q 859 1004 736 1077 q 1048 807 981 932 q 1116 529 1116 682 q 1048 252 1116 378 q 859 54 981 127 q 578 -20 736 -20 m 770 87 q 889 237 850 149 q 928 428 928 326 q 867 688 928 561 q 699 897 806 816 q 464 977 593 977 q 383 969 425 977 q 257 824 298 911 q 216 633 216 736 q 279 372 216 500 q 453 162 342 243 q 696 81 563 81 q 770 87 734 81 m 567 1373 l 754 1373 l 754 1360 l 456 1150 l 441 1150 l 567 1373 z "},"ô":{"ha":1156,"x_min":41,"x_max":1116,"o":"m 578 -20 q 297 54 420 -20 q 108 252 175 127 q 41 529 41 378 q 108 805 41 680 q 297 1004 175 930 q 578 1077 420 1077 q 859 1004 736 1077 q 1048 807 981 932 q 1116 529 1116 682 q 1048 252 1116 378 q 859 54 981 127 q 578 -20 736 -20 m 770 87 q 889 237 850 149 q 928 428 928 326 q 867 688 928 561 q 699 897 806 816 q 464 977 593 977 q 383 969 425 977 q 257 824 298 911 q 216 633 216 736 q 279 372 216 500 q 453 162 342 243 q 696 81 563 81 q 770 87 734 81 m 346 1155 l 565 1394 l 783 1155 l 775 1145 l 565 1254 l 354 1145 l 346 1155 z "},"ö":{"ha":1156,"x_min":41,"x_max":1116,"o":"m 578 -20 q 297 54 420 -20 q 108 252 175 127 q 41 529 41 378 q 108 805 41 680 q 297 1004 175 930 q 578 1077 420 1077 q 859 1004 736 1077 q 1048 807 981 932 q 1116 529 1116 682 q 1048 252 1116 378 q 859 54 981 127 q 578 -20 736 -20 m 770 87 q 889 237 850 149 q 928 428 928 326 q 867 688 928 561 q 699 897 806 816 q 464 977 593 977 q 383 969 425 977 q 257 824 298 911 q 216 633 216 736 q 279 372 216 500 q 453 162 342 243 q 696 81 563 81 q 770 87 734 81 m 314 1262 l 422 1369 l 531 1262 l 422 1154 l 314 1262 m 600 1262 l 709 1369 l 817 1262 l 709 1154 l 600 1262 z "},"ò":{"ha":1156,"x_min":41,"x_max":1116,"o":"m 578 -20 q 297 54 420 -20 q 108 252 175 127 q 41 529 41 378 q 108 805 41 680 q 297 1004 175 930 q 578 1077 420 1077 q 859 1004 736 1077 q 1048 807 981 932 q 1116 529 1116 682 q 1048 252 1116 378 q 859 54 981 127 q 578 -20 736 -20 m 770 87 q 889 237 850 149 q 928 428 928 326 q 867 688 928 561 q 699 897 806 816 q 464 977 593 977 q 383 969 425 977 q 257 824 298 911 q 216 633 216 736 q 279 372 216 500 q 453 162 342 243 q 696 81 563 81 q 770 87 734 81 m 673 1150 l 374 1360 l 374 1373 l 562 1373 l 688 1150 l 673 1150 z "},"ő":{"ha":1156,"x_min":41,"x_max":1116,"o":"m 578 -20 q 297 54 420 -20 q 108 252 175 127 q 41 529 41 378 q 108 805 41 680 q 297 1004 175 930 q 578 1077 420 1077 q 859 1004 736 1077 q 1048 807 981 932 q 1116 529 1116 682 q 1048 252 1116 378 q 859 54 981 127 q 578 -20 736 -20 m 770 87 q 889 237 850 149 q 928 428 928 326 q 867 688 928 561 q 699 897 806 816 q 464 977 593 977 q 383 969 425 977 q 257 824 298 911 q 216 633 216 736 q 279 372 216 500 q 453 162 342 243 q 696 81 563 81 q 770 87 734 81 m 484 1373 l 668 1373 l 668 1360 l 399 1150 l 385 1150 l 484 1373 m 718 1373 l 902 1373 l 902 1360 l 633 1150 l 618 1150 l 718 1373 z "},"ō":{"ha":1156,"x_min":41,"x_max":1116,"o":"m 578 -20 q 297 54 420 -20 q 108 252 175 127 q 41 529 41 378 q 108 805 41 680 q 297 1004 175 930 q 578 1077 420 1077 q 859 1004 736 1077 q 1048 807 981 932 q 1116 529 1116 682 q 1048 252 1116 378 q 859 54 981 127 q 578 -20 736 -20 m 770 87 q 889 237 850 149 q 928 428 928 326 q 867 688 928 561 q 699 897 806 816 q 464 977 593 977 q 383 969 425 977 q 257 824 298 911 q 216 633 216 736 q 279 372 216 500 q 453 162 342 243 q 696 81 563 81 q 770 87 734 81 m 352 1289 l 779 1289 l 779 1193 l 566 1227 l 352 1193 l 352 1289 z "},"ø":{"ha":1156,"x_min":41,"x_max":1116,"o":"m 939 945 q 1069 762 1023 870 q 1116 529 1116 654 q 1048 252 1116 378 q 859 54 981 127 q 578 -20 736 -20 q 416 3 492 -20 q 277 66 340 25 l 275 64 l 163 -109 l 45 -109 l 214 115 q 86 298 131 191 q 41 529 41 406 q 108 805 41 680 q 297 1004 175 930 q 578 1077 420 1077 q 739 1056 663 1077 q 877 994 814 1034 l 986 1164 l 1104 1164 l 939 945 m 383 969 q 257 824 299 911 q 216 633 216 736 q 248 448 216 541 q 337 277 279 355 l 762 842 q 624 942 701 906 q 464 978 548 978 q 383 969 429 978 m 770 87 q 889 237 850 149 q 928 428 928 326 q 898 611 928 519 q 814 779 868 703 l 389 216 q 531 117 452 153 q 695 81 609 81 q 770 87 734 81 z "},"õ":{"ha":1156,"x_min":41,"x_max":1116,"o":"m 578 -20 q 297 54 420 -20 q 108 252 175 127 q 41 529 41 378 q 108 805 41 680 q 297 1004 175 930 q 578 1077 420 1077 q 859 1004 736 1077 q 1048 807 981 932 q 1116 529 1116 682 q 1048 252 1116 378 q 859 54 981 127 q 578 -20 736 -20 m 770 87 q 889 237 850 149 q 928 428 928 326 q 867 688 928 561 q 699 897 806 816 q 464 977 593 977 q 383 969 425 977 q 257 824 298 911 q 216 633 216 736 q 279 372 216 500 q 453 162 342 243 q 696 81 563 81 q 770 87 734 81 m 432 1241 q 345 1208 387 1232 l 337 1217 q 398 1298 363 1270 q 482 1326 433 1326 q 532 1319 506 1326 l 686 1284 q 768 1318 727 1295 l 777 1310 q 715 1228 750 1255 q 633 1200 681 1200 q 582 1207 608 1200 l 432 1241 z "},"œ":{"ha":1435,"x_min":41,"x_max":1388,"o":"m 578 -20 q 297 54 420 -20 q 108 252 175 127 q 41 529 41 378 q 108 805 41 680 q 297 1004 175 930 q 578 1077 420 1077 q 740 1055 663 1077 l 1370 1055 l 1292 846 l 1279 846 l 1169 987 l 930 987 l 930 543 l 1267 591 l 1224 475 l 930 475 l 930 68 l 1168 68 l 1374 211 l 1388 211 l 1362 0 l 731 0 q 578 -20 659 -20 m 731 871 q 609 942 675 917 q 471 967 543 967 q 387 958 429 967 q 257 810 300 899 q 214 619 214 722 q 275 369 214 491 q 445 171 336 248 q 684 94 553 94 q 731 96 710 94 l 731 871 z "},"p":{"ha":844,"x_min":47,"x_max":796,"o":"m 47 14 l 138 87 l 138 966 l 47 1042 l 47 1055 l 385 1055 q 604 1017 512 1055 q 746 902 696 979 q 796 713 796 825 q 742 522 796 600 q 584 406 687 445 q 337 367 481 367 l 337 87 l 481 14 l 481 0 l 47 0 l 47 14 m 357 435 q 471 469 420 435 q 552 565 522 502 q 582 713 582 627 q 552 860 582 798 q 471 954 522 922 q 357 987 420 987 l 337 987 l 337 435 l 357 435 z "},"þ":{"ha":845,"x_min":61,"x_max":798,"o":"m 61 14 l 152 87 l 152 966 l 62 1042 l 62 1055 l 442 1055 l 442 1042 l 351 966 l 351 890 l 372 890 q 596 852 500 890 q 745 741 692 814 q 798 563 798 667 q 745 382 798 458 q 595 268 692 307 q 372 229 499 229 l 351 229 l 351 87 l 441 14 l 441 0 l 61 0 l 61 14 m 365 300 q 487 331 435 300 q 566 420 538 362 q 593 557 593 479 q 566 696 593 636 q 487 789 538 756 q 365 822 435 822 l 351 822 l 351 300 l 365 300 z "},"q":{"ha":1286,"x_min":47,"x_max":1279,"o":"m 585 -20 q 304 54 427 -20 q 115 252 182 127 q 47 529 47 378 q 115 805 47 680 q 304 1004 182 930 q 585 1077 427 1077 q 865 1004 743 1077 q 1055 807 987 932 q 1122 529 1122 682 q 1095 346 1122 432 q 1015 191 1067 260 q 1117 63 1046 109 q 1275 14 1187 17 l 1279 0 q 1212 -13 1261 -5 q 1105 -20 1162 -20 q 848 45 945 -20 q 585 -20 730 -20 m 799 97 q 748 196 770 130 q 725 315 726 262 l 953 315 q 967 419 967 366 q 898 671 967 545 q 712 878 828 798 q 464 959 595 959 q 347 941 404 959 q 247 808 279 884 q 214 646 214 732 q 283 384 214 513 q 470 172 353 254 q 722 90 587 90 q 799 97 758 90 z "},"r":{"ha":970,"x_min":54,"x_max":923,"o":"m 54 14 l 144 87 l 144 966 l 54 1042 l 54 1055 l 385 1055 q 602 1017 507 1055 q 750 908 697 979 q 803 746 803 838 q 768 609 803 670 q 675 507 733 547 q 551 452 618 467 l 714 351 l 844 87 l 923 14 l 923 0 l 671 0 l 445 432 q 344 428 397 428 l 344 87 l 488 14 l 488 0 l 54 0 l 54 14 m 361 496 q 476 526 425 496 q 558 611 528 555 q 589 743 589 667 q 558 874 589 819 q 476 958 528 929 q 361 987 425 987 l 344 987 l 344 496 l 361 496 z "},"ŕ":{"ha":970,"x_min":54,"x_max":923,"o":"m 54 14 l 144 87 l 144 966 l 54 1042 l 54 1055 l 385 1055 q 602 1017 507 1055 q 750 908 697 979 q 803 746 803 838 q 768 609 803 670 q 675 507 733 547 q 551 452 618 467 l 714 351 l 844 87 l 923 14 l 923 0 l 671 0 l 445 432 q 344 428 397 428 l 344 87 l 488 14 l 488 0 l 54 0 l 54 14 m 361 496 q 476 526 425 496 q 558 611 528 555 q 589 743 589 667 q 558 874 589 819 q 476 958 528 929 q 361 987 425 987 l 344 987 l 344 496 l 361 496 m 471 1373 l 658 1373 l 658 1360 l 359 1150 l 345 1150 l 471 1373 z "},"ř":{"ha":970,"x_min":54,"x_max":923,"o":"m 54 14 l 144 87 l 144 966 l 54 1042 l 54 1055 l 385 1055 q 602 1017 507 1055 q 750 908 697 979 q 803 746 803 838 q 768 609 803 670 q 675 507 733 547 q 551 452 618 467 l 714 351 l 844 87 l 923 14 l 923 0 l 671 0 l 445 432 q 344 428 397 428 l 344 87 l 488 14 l 488 0 l 54 0 l 54 14 m 361 496 q 476 526 425 496 q 558 611 528 555 q 589 743 589 667 q 558 874 589 819 q 476 958 528 929 q 361 987 425 987 l 344 987 l 344 496 l 361 496 m 210 1369 l 218 1378 l 429 1270 l 639 1378 l 647 1369 l 429 1130 l 210 1369 z "},"ŗ":{"ha":970,"x_min":54,"x_max":923,"o":"m 54 14 l 144 87 l 144 966 l 54 1042 l 54 1055 l 385 1055 q 602 1017 507 1055 q 750 908 697 979 q 803 746 803 838 q 768 609 803 670 q 675 507 733 547 q 551 452 618 467 l 714 351 l 844 87 l 923 14 l 923 0 l 671 0 l 445 432 q 344 428 397 428 l 344 87 l 488 14 l 488 0 l 54 0 l 54 14 m 361 496 q 476 526 425 496 q 558 611 528 555 q 589 743 589 667 q 558 874 589 819 q 476 958 528 929 q 361 987 425 987 l 344 987 l 344 496 l 361 496 m 486 -393 q 505 -307 505 -356 q 492 -230 505 -267 q 454 -165 479 -192 l 553 -64 q 618 -208 618 -135 q 579 -321 618 -271 q 494 -402 540 -371 l 486 -393 z "},"s":{"ha":778,"x_min":47,"x_max":730,"o":"m 360 -20 q 47 41 174 -20 l 103 218 l 117 218 l 316 47 q 486 84 425 47 q 547 188 547 120 q 521 277 547 233 q 433 369 494 320 q 268 477 372 418 q 107 615 158 539 q 57 783 57 691 q 98 932 57 865 q 215 1037 139 999 q 391 1076 291 1076 q 550 1057 475 1076 q 682 1002 625 1038 l 618 795 l 604 795 l 418 1007 q 269 971 326 1007 q 212 869 212 936 q 236 783 212 821 q 313 703 259 744 q 465 606 366 663 q 666 436 601 527 q 730 258 730 346 q 685 113 730 176 q 556 15 640 50 q 360 -20 473 -20 z "},"ś":{"ha":778,"x_min":47,"x_max":730,"o":"m 360 -20 q 47 41 174 -20 l 103 218 l 117 218 l 316 47 q 486 84 425 47 q 547 188 547 120 q 521 277 547 233 q 433 369 494 320 q 268 477 372 418 q 107 615 158 539 q 57 783 57 691 q 98 932 57 865 q 215 1037 139 999 q 391 1076 291 1076 q 550 1057 475 1076 q 682 1002 625 1038 l 618 795 l 604 795 l 418 1007 q 269 971 326 1007 q 212 869 212 936 q 236 783 212 821 q 313 703 259 744 q 465 606 366 663 q 666 436 601 527 q 730 258 730 346 q 685 113 730 176 q 556 15 640 50 q 360 -20 473 -20 m 414 1373 l 602 1373 l 602 1360 l 303 1150 l 288 1150 l 414 1373 z "},"š":{"ha":778,"x_min":47,"x_max":730,"o":"m 360 -20 q 47 41 174 -20 l 103 218 l 117 218 l 316 47 q 486 84 425 47 q 547 188 547 120 q 521 277 547 233 q 433 369 494 320 q 268 477 372 418 q 107 615 158 539 q 57 783 57 691 q 98 932 57 865 q 215 1037 139 999 q 391 1076 291 1076 q 550 1057 475 1076 q 682 1002 625 1038 l 618 795 l 604 795 l 418 1007 q 269 971 326 1007 q 212 869 212 936 q 236 783 212 821 q 313 703 259 744 q 465 606 366 663 q 666 436 601 527 q 730 258 730 346 q 685 113 730 176 q 556 15 640 50 q 360 -20 473 -20 m 150 1369 l 158 1378 l 369 1270 l 579 1378 l 587 1369 l 369 1130 l 150 1369 z "},"ş":{"ha":778,"x_min":47,"x_max":730,"o":"m 360 -20 q 47 41 174 -20 l 103 218 l 117 218 l 316 47 q 486 84 425 47 q 547 188 547 120 q 521 277 547 233 q 433 369 494 320 q 268 477 372 418 q 107 615 158 539 q 57 783 57 691 q 98 932 57 865 q 215 1037 139 999 q 391 1076 291 1076 q 550 1057 475 1076 q 682 1002 625 1038 l 618 795 l 604 795 l 418 1007 q 269 971 326 1007 q 212 869 212 936 q 236 783 212 821 q 313 703 259 744 q 465 606 366 663 q 666 436 601 527 q 730 258 730 346 q 685 113 730 176 q 556 15 640 50 q 360 -20 473 -20 m 353 -366 q 277 -350 311 -366 l 282 -338 q 294 -338 286 -338 q 366 -317 335 -338 q 397 -258 397 -296 q 387 -214 397 -231 q 358 -180 377 -198 q 334 -151 342 -163 q 326 -120 326 -139 q 341 -78 326 -98 q 385 -43 355 -58 q 379 -65 379 -54 q 391 -92 379 -81 q 427 -117 402 -102 q 453 -132 439 -123 q 515 -236 515 -174 q 472 -332 515 -297 q 353 -366 429 -366 z "},"ß":{"ha":977,"x_min":61,"x_max":930,"o":"m 758 -20 q 590 -5 673 -20 q 449 41 508 11 l 505 218 l 519 218 l 718 47 q 756 86 742 62 q 770 139 770 111 q 756 196 770 169 q 708 256 742 224 q 615 330 675 288 q 512 409 547 377 q 461 472 477 440 q 446 547 446 505 q 465 612 446 583 q 522 684 484 642 q 572 744 553 719 q 605 802 591 769 q 618 875 618 836 q 586 970 618 934 q 496 1007 553 1007 q 387 946 422 1007 q 351 764 351 885 l 351 0 l 61 0 l 61 14 l 152 87 l 152 640 l 61 640 l 61 652 l 152 750 q 243 991 152 907 q 509 1076 334 1076 q 673 1050 604 1076 q 781 979 743 1025 q 818 875 818 934 q 797 789 818 824 q 748 733 777 753 q 675 689 719 712 q 619 654 637 668 q 602 620 602 640 q 638 561 602 593 q 751 477 674 530 l 774 461 q 930 227 930 353 q 884 84 930 150 q 758 -20 838 18 z "},"t":{"ha":897,"x_min":47,"x_max":850,"o":"m 250 14 l 340 87 l 340 987 q 189 940 262 976 q 62 849 116 903 l 47 849 l 114 1055 l 850 1055 l 783 849 l 769 849 q 669 936 732 898 q 539 987 607 973 l 539 87 l 629 14 l 629 0 l 250 0 l 250 14 z "},"ť":{"ha":897,"x_min":47,"x_max":850,"o":"m 250 14 l 340 87 l 340 987 q 189 940 262 976 q 62 849 116 903 l 47 849 l 114 1055 l 850 1055 l 783 849 l 769 849 q 669 936 732 898 q 539 987 607 973 l 539 87 l 629 14 l 629 0 l 250 0 l 250 14 m 231 1369 l 239 1378 l 450 1270 l 661 1378 l 669 1369 l 450 1130 l 231 1369 z "},"ţ":{"ha":897,"x_min":47,"x_max":850,"o":"m 250 14 l 340 87 l 340 987 q 189 940 262 976 q 62 849 116 903 l 47 849 l 114 1055 l 850 1055 l 783 849 l 769 849 q 669 936 732 898 q 539 987 607 973 l 539 87 l 629 14 l 629 0 l 250 0 l 250 14 m 418 -366 q 343 -350 377 -366 l 348 -338 q 360 -338 352 -338 q 432 -317 401 -338 q 463 -258 463 -296 q 453 -214 463 -231 q 424 -180 443 -198 q 400 -151 408 -163 q 392 -120 392 -139 q 407 -78 392 -98 q 450 -43 421 -58 q 445 -65 445 -54 q 456 -92 445 -81 q 493 -117 468 -102 q 519 -132 505 -123 q 581 -236 581 -174 q 538 -332 581 -297 q 418 -366 495 -366 z "},"u":{"ha":1107,"x_min":41,"x_max":1066,"o":"m 469 -21 q 288 21 364 -21 q 171 139 212 64 q 131 313 131 215 l 131 966 l 41 1042 l 41 1055 l 474 1055 l 474 1042 l 330 966 l 330 311 q 357 182 330 235 q 432 101 385 128 q 539 73 479 73 q 669 99 604 73 q 777 172 733 125 l 777 966 l 633 1042 l 633 1055 l 1066 1055 l 1066 1042 l 976 966 l 976 87 l 1066 14 l 1066 0 l 797 0 l 777 81 q 644 6 723 33 q 469 -21 566 -21 z "},"ú":{"ha":1107,"x_min":41,"x_max":1066,"o":"m 469 -21 q 288 21 364 -21 q 171 139 212 64 q 131 313 131 215 l 131 966 l 41 1042 l 41 1055 l 474 1055 l 474 1042 l 330 966 l 330 311 q 357 182 330 235 q 432 101 385 128 q 539 73 479 73 q 669 99 604 73 q 777 172 733 125 l 777 966 l 633 1042 l 633 1055 l 1066 1055 l 1066 1042 l 976 966 l 976 87 l 1066 14 l 1066 0 l 797 0 l 777 81 q 644 6 723 33 q 469 -21 566 -21 m 570 1373 l 757 1373 l 757 1360 l 458 1150 l 444 1150 l 570 1373 z "},"û":{"ha":1107,"x_min":41,"x_max":1066,"o":"m 469 -21 q 288 21 364 -21 q 171 139 212 64 q 131 313 131 215 l 131 966 l 41 1042 l 41 1055 l 474 1055 l 474 1042 l 330 966 l 330 311 q 357 182 330 235 q 432 101 385 128 q 539 73 479 73 q 669 99 604 73 q 777 172 733 125 l 777 966 l 633 1042 l 633 1055 l 1066 1055 l 1066 1042 l 976 966 l 976 87 l 1066 14 l 1066 0 l 797 0 l 777 81 q 644 6 723 33 q 469 -21 566 -21 m 336 1155 l 555 1394 l 773 1155 l 765 1145 l 555 1254 l 344 1145 l 336 1155 z "},"ü":{"ha":1107,"x_min":41,"x_max":1066,"o":"m 469 -21 q 288 21 364 -21 q 171 139 212 64 q 131 313 131 215 l 131 966 l 41 1042 l 41 1055 l 474 1055 l 474 1042 l 330 966 l 330 311 q 357 182 330 235 q 432 101 385 128 q 539 73 479 73 q 669 99 604 73 q 777 172 733 125 l 777 966 l 633 1042 l 633 1055 l 1066 1055 l 1066 1042 l 976 966 l 976 87 l 1066 14 l 1066 0 l 797 0 l 777 81 q 644 6 723 33 q 469 -21 566 -21 m 304 1262 l 412 1369 l 521 1262 l 412 1154 l 304 1262 m 590 1262 l 699 1369 l 807 1262 l 699 1154 l 590 1262 z "},"ù":{"ha":1107,"x_min":41,"x_max":1066,"o":"m 469 -21 q 288 21 364 -21 q 171 139 212 64 q 131 313 131 215 l 131 966 l 41 1042 l 41 1055 l 474 1055 l 474 1042 l 330 966 l 330 311 q 357 182 330 235 q 432 101 385 128 q 539 73 479 73 q 669 99 604 73 q 777 172 733 125 l 777 966 l 633 1042 l 633 1055 l 1066 1055 l 1066 1042 l 976 966 l 976 87 l 1066 14 l 1066 0 l 797 0 l 777 81 q 644 6 723 33 q 469 -21 566 -21 m 657 1150 l 359 1360 l 359 1373 l 546 1373 l 672 1150 l 657 1150 z "},"ű":{"ha":1107,"x_min":41,"x_max":1066,"o":"m 469 -21 q 288 21 364 -21 q 171 139 212 64 q 131 313 131 215 l 131 966 l 41 1042 l 41 1055 l 474 1055 l 474 1042 l 330 966 l 330 311 q 357 182 330 235 q 432 101 385 128 q 539 73 479 73 q 669 99 604 73 q 777 172 733 125 l 777 966 l 633 1042 l 633 1055 l 1066 1055 l 1066 1042 l 976 966 l 976 87 l 1066 14 l 1066 0 l 797 0 l 777 81 q 644 6 723 33 q 469 -21 566 -21 m 450 1373 l 633 1373 l 633 1360 l 365 1150 l 350 1150 l 450 1373 m 684 1373 l 867 1373 l 867 1360 l 599 1150 l 584 1150 l 684 1373 z "},"ū":{"ha":1107,"x_min":41,"x_max":1066,"o":"m 469 -21 q 288 21 364 -21 q 171 139 212 64 q 131 313 131 215 l 131 966 l 41 1042 l 41 1055 l 474 1055 l 474 1042 l 330 966 l 330 311 q 357 182 330 235 q 432 101 385 128 q 539 73 479 73 q 669 99 604 73 q 777 172 733 125 l 777 966 l 633 1042 l 633 1055 l 1066 1055 l 1066 1042 l 976 966 l 976 87 l 1066 14 l 1066 0 l 797 0 l 777 81 q 644 6 723 33 q 469 -21 566 -21 m 342 1289 l 769 1289 l 769 1193 l 555 1227 l 342 1193 l 342 1289 z "},"ų":{"ha":1107,"x_min":41,"x_max":1066,"o":"m 607 -237 q 559 -286 591 -268 q 490 -303 527 -303 q 429 -290 457 -303 q 384 -249 401 -276 q 366 -184 366 -222 q 395 -93 366 -138 q 474 -21 423 -48 l 453 -21 q 377 -12 401 -19 q 244 51 300 5 q 160 163 189 96 q 131 313 131 230 l 131 966 l 41 1042 l 41 1055 l 474 1055 l 474 1042 l 330 966 l 330 311 q 357 182 330 235 q 432 101 385 128 q 539 73 479 73 q 669 99 604 73 q 777 172 733 125 l 777 966 l 633 1042 l 633 1055 l 1066 1055 l 1066 1042 l 976 966 l 976 87 l 1066 14 l 1066 0 l 797 0 l 777 81 q 618 0 699 52 q 526 -83 559 -37 q 492 -173 492 -129 q 509 -229 492 -210 q 555 -248 526 -248 q 607 -237 578 -248 z "},"ů":{"ha":1107,"x_min":41,"x_max":1066,"o":"m 469 -21 q 288 21 364 -21 q 171 139 212 64 q 131 313 131 215 l 131 966 l 41 1042 l 41 1055 l 474 1055 l 474 1042 l 330 966 l 330 311 q 357 182 330 235 q 432 101 385 128 q 539 73 479 73 q 669 99 604 73 q 777 172 733 125 l 777 966 l 633 1042 l 633 1055 l 1066 1055 l 1066 1042 l 976 966 l 976 87 l 1066 14 l 1066 0 l 797 0 l 777 81 q 644 6 723 33 q 469 -21 566 -21 m 566 1131 q 500 1149 530 1131 q 452 1197 469 1166 q 434 1263 434 1227 q 452 1328 434 1298 q 500 1376 469 1358 q 566 1394 530 1394 q 632 1376 602 1394 q 680 1328 663 1358 q 698 1263 698 1298 q 680 1197 698 1227 q 632 1149 663 1166 q 566 1131 602 1131 m 603 1177 q 628 1208 619 1188 q 636 1250 636 1227 q 629 1289 636 1270 q 593 1332 618 1314 q 542 1350 568 1350 q 530 1348 538 1350 q 504 1317 513 1337 q 496 1275 496 1297 q 503 1236 496 1252 q 539 1193 515 1211 q 590 1175 564 1175 q 603 1177 595 1175 z "},"v":{"ha":1066,"x_min":41,"x_max":1025,"o":"m 123 966 l 41 1042 l 41 1055 l 473 1055 l 473 1042 l 322 966 l 594 298 l 868 966 l 716 1042 l 716 1055 l 1025 1055 l 1025 1042 l 943 966 l 538 -20 l 525 -20 l 123 966 z "},"w":{"ha":1551,"x_min":41,"x_max":1510,"o":"m 104 966 l 41 1042 l 41 1055 l 438 1055 l 438 1042 l 305 966 l 566 328 l 743 822 l 683 892 l 826 1076 l 841 1076 l 1143 327 l 1372 966 l 1234 1042 l 1234 1055 l 1510 1055 l 1510 1042 l 1445 966 l 1092 -20 l 1077 -20 l 779 720 l 513 -20 l 496 -20 l 104 966 z "},"ẃ":{"ha":1551,"x_min":41,"x_max":1510,"o":"m 104 966 l 41 1042 l 41 1055 l 438 1055 l 438 1042 l 305 966 l 566 328 l 743 822 l 683 892 l 826 1076 l 841 1076 l 1143 327 l 1372 966 l 1234 1042 l 1234 1055 l 1510 1055 l 1510 1042 l 1445 966 l 1092 -20 l 1077 -20 l 779 720 l 513 -20 l 496 -20 l 104 966 m 861 1373 l 1048 1373 l 1048 1360 l 750 1150 l 735 1150 l 861 1373 z "},"ẅ":{"ha":1551,"x_min":41,"x_max":1510,"o":"m 104 966 l 41 1042 l 41 1055 l 438 1055 l 438 1042 l 305 966 l 566 328 l 743 822 l 683 892 l 826 1076 l 841 1076 l 1143 327 l 1372 966 l 1234 1042 l 1234 1055 l 1510 1055 l 1510 1042 l 1445 966 l 1092 -20 l 1077 -20 l 779 720 l 513 -20 l 496 -20 l 104 966 m 581 1262 l 689 1369 l 798 1262 l 689 1154 l 581 1262 m 867 1262 l 976 1369 l 1084 1262 l 976 1154 l 867 1262 z "},"ẁ":{"ha":1551,"x_min":41,"x_max":1510,"o":"m 104 966 l 41 1042 l 41 1055 l 438 1055 l 438 1042 l 305 966 l 566 328 l 743 822 l 683 892 l 826 1076 l 841 1076 l 1143 327 l 1372 966 l 1234 1042 l 1234 1055 l 1510 1055 l 1510 1042 l 1445 966 l 1092 -20 l 1077 -20 l 779 720 l 513 -20 l 496 -20 l 104 966 m 882 1150 l 584 1360 l 584 1373 l 771 1373 l 897 1150 l 882 1150 z "},"x":{"ha":1023,"x_min":47,"x_max":975,"o":"m 47 14 l 124 87 l 395 550 l 151 966 l 73 1042 l 73 1055 l 486 1055 l 486 1042 l 383 966 l 583 625 l 783 966 l 683 1042 l 683 1055 l 939 1055 l 939 1042 l 861 966 l 622 559 l 898 87 l 975 14 l 975 0 l 529 0 l 529 14 l 667 87 l 433 484 l 201 87 l 357 14 l 357 0 l 47 0 l 47 14 z "},"y":{"ha":974,"x_min":34,"x_max":940,"o":"m 298 13 l 388 87 l 388 430 l 115 966 l 34 1042 l 34 1055 l 492 1055 l 492 1042 l 338 966 l 560 530 l 783 966 l 629 1042 l 629 1055 l 940 1055 l 940 1042 l 860 966 l 587 430 l 587 87 l 677 14 l 677 0 l 298 0 l 298 13 z "},"ý":{"ha":974,"x_min":34,"x_max":940,"o":"m 298 13 l 388 87 l 388 430 l 115 966 l 34 1042 l 34 1055 l 492 1055 l 492 1042 l 338 966 l 560 530 l 783 966 l 629 1042 l 629 1055 l 940 1055 l 940 1042 l 860 966 l 587 430 l 587 87 l 677 14 l 677 0 l 298 0 l 298 13 m 583 1373 l 770 1373 l 770 1360 l 471 1150 l 456 1150 l 583 1373 z "},"ÿ":{"ha":974,"x_min":34,"x_max":940,"o":"m 298 13 l 388 87 l 388 430 l 115 966 l 34 1042 l 34 1055 l 492 1055 l 492 1042 l 338 966 l 560 530 l 783 966 l 629 1042 l 629 1055 l 940 1055 l 940 1042 l 860 966 l 587 430 l 587 87 l 677 14 l 677 0 l 298 0 l 298 13 m 308 1262 l 416 1369 l 525 1262 l 416 1154 l 308 1262 m 594 1262 l 703 1369 l 811 1262 l 703 1154 l 594 1262 z "},"ỳ":{"ha":974,"x_min":34,"x_max":940,"o":"m 298 13 l 388 87 l 388 430 l 115 966 l 34 1042 l 34 1055 l 492 1055 l 492 1042 l 338 966 l 560 530 l 783 966 l 629 1042 l 629 1055 l 940 1055 l 940 1042 l 860 966 l 587 430 l 587 87 l 677 14 l 677 0 l 298 0 l 298 13 m 606 1150 l 308 1360 l 308 1373 l 495 1373 l 621 1150 l 606 1150 z "},"z":{"ha":949,"x_min":41,"x_max":908,"o":"m 41 14 l 591 987 l 321 987 l 97 845 l 83 845 l 121 1055 l 854 1055 l 854 1042 l 303 68 l 670 68 l 894 210 l 908 210 l 869 0 l 41 0 l 41 14 z "},"ź":{"ha":949,"x_min":41,"x_max":908,"o":"m 41 14 l 591 987 l 321 987 l 97 845 l 83 845 l 121 1055 l 854 1055 l 854 1042 l 303 68 l 670 68 l 894 210 l 908 210 l 869 0 l 41 0 l 41 14 m 511 1373 l 699 1373 l 699 1360 l 400 1150 l 385 1150 l 511 1373 z "},"ž":{"ha":949,"x_min":41,"x_max":908,"o":"m 41 14 l 591 987 l 321 987 l 97 845 l 83 845 l 121 1055 l 854 1055 l 854 1042 l 303 68 l 670 68 l 894 210 l 908 210 l 869 0 l 41 0 l 41 14 m 274 1369 l 282 1378 l 493 1270 l 703 1378 l 711 1369 l 493 1130 l 274 1369 z "},"ż":{"ha":949,"x_min":41,"x_max":908,"o":"m 41 14 l 591 987 l 321 987 l 97 845 l 83 845 l 121 1055 l 854 1055 l 854 1042 l 303 68 l 670 68 l 894 210 l 908 210 l 869 0 l 41 0 l 41 14 m 368 1261 l 482 1375 l 595 1261 l 482 1149 l 368 1261 z "},"ª":{"ha":629,"x_min":75,"x_max":551,"o":"m 75 557 l 115 592 l 257 939 l 228 975 l 310 1055 l 321 1055 l 513 592 l 551 557 l 551 545 l 332 545 l 332 557 l 401 591 l 368 671 l 189 671 l 156 591 l 224 557 l 224 545 l 75 545 l 75 557 m 352 711 l 278 888 l 205 711 l 352 711 m 81 455 l 254 441 l 374 441 l 547 455 l 547 359 l 374 373 l 254 373 l 81 359 l 81 455 z "},"º":{"ha":653,"x_min":87,"x_max":597,"o":"m 342 535 q 211 569 269 535 q 120 662 153 602 q 87 795 87 721 q 120 929 87 869 q 212 1022 153 988 q 342 1055 270 1055 q 474 1022 416 1055 q 564 929 532 988 q 597 795 597 870 q 564 662 597 721 q 473 569 531 602 q 342 535 415 535 m 427 600 q 482 668 464 628 q 500 754 500 708 q 472 869 500 813 q 397 960 445 925 q 291 996 349 996 q 255 992 271 996 q 197 925 216 965 q 178 839 178 885 q 206 724 178 780 q 284 632 235 667 q 393 596 334 596 q 427 600 408 596 m 108 455 l 281 441 l 400 441 l 573 455 l 573 359 l 400 373 l 281 373 l 108 359 l 108 455 z "},"∕":{"ha":673,"x_min":47,"x_max":626,"o":"m 490 923 l 517 1055 l 626 1055 l 184 132 l 157 0 l 47 0 l 490 923 z "},"½":{"ha":1372,"x_min":68,"x_max":1301,"o":"m 109 414 l 161 459 l 161 878 l 68 895 l 68 908 l 288 1046 l 303 1046 l 303 459 l 355 414 l 355 400 l 109 400 l 109 414 m 829 14 q 957 137 901 78 q 1060 283 1013 195 q 1107 469 1107 372 q 1085 556 1107 518 q 1030 604 1063 595 l 892 435 l 879 435 l 807 556 q 908 629 846 600 q 1038 658 971 658 q 1157 632 1106 658 q 1236 561 1208 607 q 1264 452 1264 514 q 1207 280 1264 366 q 1053 127 1151 193 l 1149 127 l 1301 156 l 1283 0 l 829 0 l 829 14 m 787 923 l 814 1055 l 924 1055 l 481 132 l 454 0 l 345 0 l 787 923 z "},"¼":{"ha":1312,"x_min":68,"x_max":1236,"o":"m 109 414 l 161 459 l 161 878 l 68 895 l 68 908 l 288 1046 l 303 1046 l 303 459 l 355 414 l 355 400 l 109 400 l 109 414 m 894 15 l 970 73 l 970 204 l 711 204 l 954 633 l 1157 661 l 815 256 l 970 256 l 970 407 l 1097 557 l 1112 557 l 1112 258 l 1236 275 l 1236 204 l 1112 204 l 1112 73 l 1166 14 l 1166 0 l 894 0 l 894 15 m 795 923 l 823 1055 l 932 1055 l 490 132 l 463 0 l 353 0 l 795 923 z "},"¾":{"ha":1373,"x_min":68,"x_max":1298,"o":"m 956 15 l 1031 73 l 1031 204 l 773 204 l 1016 633 l 1219 661 l 877 256 l 1031 256 l 1031 407 l 1158 557 l 1173 557 l 1173 258 l 1298 275 l 1298 204 l 1173 204 l 1173 73 l 1227 14 l 1227 0 l 956 0 l 956 15 m 266 381 q 151 396 201 381 q 68 431 100 411 l 139 554 l 153 554 l 229 433 q 332 474 294 435 q 369 579 369 513 q 353 655 369 617 q 311 716 337 692 l 162 696 l 162 749 l 298 768 q 349 886 349 808 q 320 965 349 933 q 245 1000 290 997 l 168 881 l 155 881 l 85 1000 l 90 1006 q 161 1037 114 1022 q 283 1052 208 1052 q 388 1030 340 1052 q 463 969 435 1008 q 491 886 491 931 q 465 806 491 842 q 390 750 438 771 q 486 683 449 730 q 522 581 522 636 q 490 476 522 522 q 399 406 458 431 q 266 381 341 381 m 858 923 l 885 1055 l 994 1055 l 552 132 l 525 0 l 416 0 l 858 923 z "},"⅛":{"ha":1333,"x_min":68,"x_max":1267,"o":"m 109 414 l 161 459 l 161 878 l 68 895 l 68 908 l 288 1046 l 303 1046 l 303 459 l 355 414 l 355 400 l 109 400 l 109 414 m 1033 -20 q 913 2 967 -20 q 828 65 859 25 q 798 153 798 104 q 831 255 798 212 q 927 320 865 298 q 853 392 876 355 q 831 478 831 429 q 857 567 831 528 q 930 627 883 606 q 1036 649 977 649 q 1138 629 1092 649 q 1210 574 1183 609 q 1236 495 1236 539 q 1209 401 1236 441 q 1132 340 1182 361 q 1236 254 1204 297 q 1267 156 1267 212 q 1236 65 1267 106 q 1152 2 1206 25 q 1033 -20 1099 -20 m 1077 372 q 1102 428 1093 395 q 1112 492 1112 461 q 1091 569 1112 542 q 1034 597 1071 597 q 979 571 1000 597 q 958 505 958 546 q 976 442 958 469 q 1029 397 994 416 l 1077 372 m 1037 32 q 1103 58 1076 32 q 1129 121 1129 83 q 1116 176 1129 151 q 1071 227 1103 201 q 982 289 1040 254 q 935 146 935 233 q 963 63 935 94 q 1037 32 990 32 m 799 923 l 826 1055 l 935 1055 l 493 132 l 466 0 l 357 0 l 799 923 z "},"⅜":{"ha":1380,"x_min":68,"x_max":1314,"o":"m 266 381 q 151 396 201 381 q 68 431 100 411 l 139 554 l 153 554 l 229 433 q 332 474 294 435 q 369 579 369 513 q 353 655 369 617 q 311 716 337 692 l 162 696 l 162 749 l 298 768 q 349 886 349 808 q 320 965 349 933 q 245 1000 290 997 l 168 881 l 155 881 l 85 1000 l 90 1006 q 161 1037 114 1022 q 283 1052 208 1052 q 388 1030 340 1052 q 463 969 435 1008 q 491 886 491 931 q 465 806 491 842 q 390 750 438 771 q 486 683 449 730 q 522 581 522 636 q 490 476 522 522 q 399 406 458 431 q 266 381 341 381 m 1080 -20 q 961 2 1015 -20 q 876 65 907 25 q 845 153 845 104 q 879 255 845 212 q 975 320 912 298 q 901 392 924 355 q 878 478 878 429 q 904 567 878 528 q 977 627 930 606 q 1083 649 1024 649 q 1185 629 1139 649 q 1257 574 1231 609 q 1283 495 1283 539 q 1256 401 1283 441 q 1179 340 1230 361 q 1283 254 1252 297 q 1314 156 1314 212 q 1284 65 1314 106 q 1200 2 1253 25 q 1080 -20 1146 -20 m 1124 372 q 1149 428 1140 395 q 1159 492 1159 461 q 1139 569 1159 542 q 1082 597 1118 597 q 1027 571 1048 597 q 1006 505 1006 546 q 1023 442 1006 469 q 1077 397 1041 416 l 1124 372 m 1084 32 q 1150 58 1124 32 q 1177 121 1177 83 q 1163 176 1177 151 q 1119 227 1150 201 q 1029 289 1087 254 q 983 146 983 233 q 1010 63 983 94 q 1084 32 1038 32 m 846 923 l 873 1055 l 983 1055 l 541 132 l 513 0 l 404 0 l 846 923 z "},"⅝":{"ha":1380,"x_min":68,"x_max":1314,"o":"m 248 381 q 145 397 198 381 q 68 431 92 413 l 138 553 l 151 553 l 228 433 q 299 455 268 435 q 348 508 330 475 q 366 582 366 541 q 325 719 366 667 l 84 686 l 84 1039 l 475 1039 l 449 888 l 300 909 l 147 909 l 146 748 l 393 782 q 484 704 452 753 q 515 591 515 655 q 480 484 515 532 q 385 409 446 436 q 248 381 323 381 m 846 923 l 873 1055 l 982 1055 l 540 132 l 513 0 l 404 0 l 846 923 m 1080 -20 q 961 2 1015 -20 q 876 65 907 25 q 845 153 845 104 q 879 255 845 212 q 975 320 912 298 q 901 392 924 355 q 878 478 878 429 q 904 567 878 528 q 977 627 930 606 q 1083 649 1024 649 q 1185 629 1139 649 q 1257 574 1231 609 q 1283 495 1283 539 q 1256 401 1283 441 q 1179 340 1230 361 q 1283 254 1252 297 q 1314 156 1314 212 q 1284 65 1314 106 q 1200 2 1253 25 q 1080 -20 1146 -20 m 1124 372 q 1149 428 1140 395 q 1159 492 1159 461 q 1139 569 1159 542 q 1082 597 1118 597 q 1027 571 1048 597 q 1006 505 1006 546 q 1023 442 1006 469 q 1077 397 1041 416 l 1124 372 m 1084 32 q 1150 58 1124 32 q 1177 121 1177 83 q 1163 176 1177 151 q 1119 227 1150 201 q 1029 289 1087 254 q 983 146 983 233 q 1010 63 983 94 q 1084 32 1038 32 z "},"⅞":{"ha":1273,"x_min":68,"x_max":1207,"o":"m 403 888 l 416 901 l 217 901 l 68 881 l 96 1033 l 492 1033 l 492 907 l 296 400 l 94 372 l 403 888 m 973 -21 q 853 2 907 -21 q 769 64 800 24 q 738 152 738 104 q 771 254 738 211 q 867 319 805 298 q 794 391 817 354 q 771 477 771 428 q 797 566 771 527 q 870 627 823 605 q 976 648 917 648 q 1078 628 1032 648 q 1150 573 1124 608 q 1176 494 1176 538 q 1149 401 1176 441 q 1072 340 1122 361 q 1176 254 1145 296 q 1207 155 1207 211 q 1177 65 1207 105 q 1093 2 1146 24 q 973 -21 1039 -21 m 1017 371 q 1042 428 1033 395 q 1052 492 1052 460 q 1031 569 1052 541 q 975 596 1011 596 q 920 571 941 596 q 899 504 899 545 q 916 441 899 468 q 970 396 934 415 l 1017 371 m 977 31 q 1043 57 1017 31 q 1069 121 1069 83 q 1056 175 1069 151 q 1011 227 1043 200 q 922 288 980 253 q 876 146 876 232 q 903 62 876 93 q 977 31 930 31 m 739 923 l 766 1055 l 875 1055 l 433 132 l 406 0 l 296 0 l 739 923 z "},"*":{"ha":592,"x_min":47,"x_max":545,"o":"m 338 709 l 296 766 l 256 709 l 220 583 l 96 673 l 204 747 l 245 802 l 178 823 l 47 819 l 95 965 l 198 884 l 264 862 l 264 932 l 219 1055 l 373 1055 l 328 932 l 328 862 l 394 884 l 497 965 l 545 819 l 414 823 l 349 802 l 389 747 l 498 673 l 374 583 l 338 709 z "},"⁂":{"ha":1227,"x_min":47,"x_max":1179,"o":"m 655 709 l 614 766 l 573 709 l 538 583 l 413 673 l 522 747 l 562 802 l 496 823 l 365 819 l 412 965 l 515 884 l 582 862 l 582 932 l 536 1055 l 690 1055 l 645 932 l 645 862 l 711 884 l 814 965 l 862 819 l 731 823 l 666 802 l 707 747 l 816 673 l 691 583 l 655 709 m 338 123 l 296 180 l 256 123 l 220 -3 l 96 87 l 204 160 l 245 216 l 178 237 l 47 232 l 95 378 l 198 297 l 264 275 l 264 345 l 219 469 l 373 469 l 328 345 l 328 275 l 394 297 l 497 378 l 545 232 l 414 237 l 349 216 l 389 160 l 498 87 l 374 -4 l 338 123 m 972 123 l 931 180 l 890 123 l 855 -3 l 730 87 l 839 160 l 880 216 l 813 237 l 682 232 l 730 378 l 833 297 l 899 275 l 899 345 l 854 469 l 1008 469 l 962 345 l 962 275 l 1029 297 l 1132 378 l 1179 232 l 1048 237 l 983 216 l 1024 160 l 1133 87 l 1008 -4 l 972 123 z "},"\\":{"ha":480,"x_min":41,"x_max":439,"o":"m 329 0 l 41 1228 l 138 1228 l 151 1055 l 439 -173 l 342 -173 l 329 0 z "},"·":{"ha":478,"x_min":163,"x_max":315,"o":"m 163 566 l 239 643 l 315 566 l 239 490 l 163 566 z "},"•":{"ha":541,"x_min":102,"x_max":439,"o":"m 102 566 l 271 735 l 439 566 l 271 396 l 102 566 z "},":":{"ha":355,"x_min":47,"x_max":307,"o":"m 47 469 l 178 600 l 307 469 l 178 339 l 47 469 m 47 130 l 178 260 l 307 130 l 178 0 l 47 130 z "},",":{"ha":304,"x_min":47,"x_max":256,"o":"m 87 -121 q 113 -26 113 -77 q 97 55 113 14 q 47 131 81 95 l 177 260 q 256 86 256 171 q 212 -33 256 22 q 96 -130 169 -88 l 87 -121 z "},"…":{"ha":954,"x_min":47,"x_max":907,"o":"m 47 130 l 178 260 l 307 130 l 178 0 l 47 130 m 347 130 l 477 260 l 607 130 l 477 0 l 347 130 m 647 130 l 777 260 l 907 130 l 777 0 l 647 130 z "},"!":{"ha":395,"x_min":68,"x_max":328,"o":"m 80 1035 l 317 1076 l 235 339 l 162 339 l 80 1035 m 68 130 l 198 260 l 328 130 l 198 0 l 68 130 z "},"¡":{"ha":395,"x_min":68,"x_max":328,"o":"m 328 925 l 197 795 l 68 925 l 197 1055 l 328 925 m 315 20 l 78 -20 l 161 716 l 233 716 l 315 20 z "},"‽":{"ha":738,"x_min":68,"x_max":670,"o":"m 245 798 l 429 838 l 395 666 l 448 720 q 499 834 499 771 q 473 919 499 879 q 401 983 446 959 q 302 1007 356 1007 l 192 846 l 178 846 l 68 1034 q 103 1046 68 1035 q 191 1066 138 1057 q 302 1076 243 1076 q 496 1038 413 1076 q 625 937 580 1000 q 670 798 670 873 q 645 687 670 743 q 570 581 620 631 l 332 339 l 245 798 m 202 130 l 332 260 l 462 130 l 332 0 l 202 130 z "},"#":{"ha":1291,"x_min":47,"x_max":1244,"o":"m 334 177 l 358 297 l 275 297 l 47 277 l 70 362 l 371 362 l 437 696 l 366 696 l 140 676 l 163 762 l 451 762 l 509 1055 l 616 1055 l 550 878 l 527 762 l 859 762 l 917 1055 l 1025 1055 l 958 878 l 934 762 l 1016 762 l 1244 782 l 1220 696 l 920 696 l 853 362 l 925 362 l 1152 383 l 1128 297 l 840 297 l 782 0 l 674 0 l 742 177 l 765 297 l 432 297 l 374 0 l 266 0 l 334 177 m 779 362 l 846 696 l 513 696 l 446 362 l 779 362 z "},".":{"ha":341,"x_min":41,"x_max":300,"o":"m 41 130 l 171 260 l 300 130 l 171 0 l 41 130 z "},"?":{"ha":738,"x_min":68,"x_max":670,"o":"m 202 470 l 448 720 q 500 834 500 772 q 473 919 500 879 q 401 983 446 959 q 302 1007 356 1007 l 192 846 l 178 846 l 68 1034 q 103 1046 68 1035 q 191 1066 138 1057 q 302 1076 243 1076 q 496 1038 413 1076 q 625 937 580 1000 q 670 798 670 873 q 645 687 670 743 q 570 581 620 631 l 332 339 l 202 470 m 202 130 l 332 260 l 462 130 l 332 0 l 202 130 z "},"¿":{"ha":738,"x_min":68,"x_max":670,"o":"m 536 925 l 406 795 l 276 925 l 406 1055 l 536 925 m 536 585 l 290 336 q 238 221 238 283 q 265 136 238 176 q 337 72 292 96 q 435 48 382 48 l 546 210 l 559 210 l 670 22 q 635 9 670 20 q 547 -11 600 -1 q 435 -20 495 -20 q 241 17 325 -20 q 113 119 158 55 q 68 258 68 182 q 93 368 68 313 q 168 475 118 424 l 406 716 l 536 585 z "},"\"":{"ha":526,"x_min":54,"x_max":472,"o":"m 54 1035 l 249 1076 l 188 793 l 115 793 l 54 1035 m 277 1035 l 472 1076 l 411 793 l 338 793 l 277 1035 z "},"'":{"ha":303,"x_min":54,"x_max":249,"o":"m 54 1035 l 249 1076 l 188 793 l 115 793 l 54 1035 z "},"※":{"ha":674,"x_min":54,"x_max":620,"o":"m 261 613 l 338 690 l 414 613 l 338 536 l 261 613 m 103 240 l 235 353 l 289 407 l 235 461 l 103 574 l 171 642 l 283 509 l 338 455 l 391 509 l 504 641 l 572 573 l 439 460 l 386 407 l 439 353 l 572 241 l 504 173 l 391 304 l 338 359 l 283 304 l 171 172 l 103 240 m 131 484 l 208 407 l 131 331 l 54 407 l 131 484 m 543 484 l 620 407 l 543 331 l 467 407 l 543 484 m 261 201 l 338 277 l 414 201 l 338 124 l 261 201 z "},";":{"ha":341,"x_min":41,"x_max":300,"o":"m 41 469 l 171 600 l 300 469 l 171 339 l 41 469 m 121 -121 q 147 -26 147 -77 q 131 55 147 14 q 81 131 115 95 l 211 260 q 290 86 290 171 q 246 -33 290 22 q 130 -130 203 -88 l 121 -121 z "},"/":{"ha":480,"x_min":41,"x_max":439,"o":"m 329 1055 l 342 1228 l 439 1228 l 151 0 l 138 -173 l 41 -173 l 329 1055 z "},"_":{"ha":730,"x_min":68,"x_max":663,"o":"m 68 0 l 663 0 l 663 -82 l 490 -68 l 241 -68 l 68 -82 l 68 0 z "},"∙":{"ha":417,"x_min":81,"x_max":336,"o":"m 81 466 l 209 593 l 336 466 l 209 338 l 81 466 z "},"〈":{"ha":564,"x_min":68,"x_max":530,"o":"m 68 528 l 425 1228 l 530 1228 l 414 1055 l 145 528 l 414 0 l 530 -173 l 425 -173 l 68 528 z "},"〉":{"ha":564,"x_min":34,"x_max":496,"o":"m 34 -173 l 150 0 l 419 528 l 150 1055 l 34 1228 l 139 1228 l 496 528 l 139 -173 l 34 -173 z "},"{":{"ha":429,"x_min":68,"x_max":367,"o":"m 163 -90 l 163 411 l 68 503 l 68 516 l 163 607 l 163 1145 l 361 1228 l 367 1216 l 231 1101 l 231 578 l 104 509 l 231 439 l 231 -46 l 367 -159 l 361 -172 l 163 -90 z "},"}":{"ha":429,"x_min":62,"x_max":361,"o":"m 62 -159 l 198 -46 l 198 439 l 325 509 l 198 578 l 198 1101 l 62 1216 l 68 1228 l 267 1145 l 267 607 l 361 516 l 361 503 l 267 411 l 267 -90 l 68 -172 l 62 -159 z "},"[":{"ha":361,"x_min":68,"x_max":313,"o":"m 68 1228 l 313 1228 l 313 1215 l 136 1169 l 136 -114 l 313 -159 l 313 -173 l 68 -173 l 68 1228 z "},"]":{"ha":361,"x_min":47,"x_max":293,"o":"m 47 -173 l 47 -159 l 224 -114 l 224 1169 l 47 1215 l 47 1228 l 293 1228 l 293 -173 l 47 -173 z "},"(":{"ha":372,"x_min":68,"x_max":311,"o":"m 207 -172 q 101 161 135 -11 q 68 528 68 334 q 100 894 68 724 q 207 1228 132 1063 l 311 1228 l 212 1061 q 136 528 136 818 q 210 -1 136 227 l 311 -172 l 207 -172 z "},")":{"ha":372,"x_min":61,"x_max":304,"o":"m 162 -1 q 236 528 236 227 q 160 1061 236 818 l 61 1228 l 165 1228 q 273 894 241 1063 q 304 528 304 724 q 271 161 304 332 q 165 -172 237 -11 l 61 -172 l 162 -1 z "},"—":{"ha":1211,"x_min":68,"x_max":1143,"o":"m 68 455 l 241 441 l 970 441 l 1143 455 l 1143 359 l 970 373 l 241 373 l 68 359 l 68 455 z "},"–":{"ha":865,"x_min":68,"x_max":798,"o":"m 68 455 l 241 441 l 625 441 l 798 455 l 798 359 l 625 373 l 241 373 l 68 359 l 68 455 z "},"-":{"ha":601,"x_min":68,"x_max":533,"o":"m 68 455 l 241 441 l 360 441 l 533 455 l 533 359 l 360 373 l 241 373 l 68 359 l 68 455 z "},"­":{"ha":514,"x_min":68,"x_max":446,"o":"m 81 414 l 446 414 l 433 339 l 68 339 l 81 414 z "},"«":{"ha":721,"x_min":88,"x_max":701,"o":"m 355 406 l 687 690 l 701 690 l 555 406 l 701 121 l 687 121 l 355 406 m 88 406 l 420 690 l 433 690 l 288 406 l 433 121 l 420 121 l 88 406 z "},"»":{"ha":721,"x_min":20,"x_max":633,"o":"m 20 121 l 166 406 l 20 690 l 34 690 l 366 406 l 34 121 l 20 121 m 288 121 l 433 406 l 288 690 l 301 690 l 633 406 l 301 121 l 288 121 z "},"‹":{"ha":454,"x_min":61,"x_max":406,"o":"m 61 406 l 393 690 l 406 690 l 260 406 l 406 121 l 393 121 l 61 406 z "},"›":{"ha":454,"x_min":47,"x_max":393,"o":"m 47 121 l 193 406 l 47 690 l 61 690 l 393 406 l 61 121 l 47 121 z "},"„":{"ha":513,"x_min":47,"x_max":465,"o":"m 109 262 l 181 262 l 242 20 l 47 -20 l 109 262 m 332 262 l 404 262 l 465 20 l 271 -20 l 332 262 z "},"“":{"ha":535,"x_min":48,"x_max":488,"o":"m 217 1027 q 191 932 191 984 q 207 852 191 892 q 256 776 223 812 l 127 646 q 48 821 48 736 q 92 940 48 885 q 208 1037 135 995 l 217 1027 m 448 1027 q 422 932 422 984 q 438 852 422 892 q 488 776 454 812 l 358 646 q 279 821 279 736 q 323 940 279 885 q 439 1037 366 995 l 448 1027 z "},"”":{"ha":535,"x_min":47,"x_max":487,"o":"m 96 1037 q 212 940 169 995 q 256 821 256 885 q 177 646 256 736 l 47 776 q 97 852 81 812 q 113 932 113 892 q 87 1027 113 984 l 96 1037 m 327 1037 q 444 940 400 995 q 487 821 487 885 q 408 646 487 736 l 279 776 q 328 852 312 812 q 345 932 345 892 q 318 1027 345 984 l 327 1037 z "},"‘":{"ha":304,"x_min":48,"x_max":256,"o":"m 208 662 q 92 759 135 704 q 48 878 48 814 q 127 1053 48 963 l 256 923 q 207 847 223 887 q 191 766 191 806 q 217 671 191 715 l 208 662 z "},"’":{"ha":317,"x_min":61,"x_max":269,"o":"m 100 671 q 127 766 127 715 q 111 847 127 806 q 61 923 94 887 l 191 1053 q 269 878 269 963 q 226 759 269 814 q 109 662 182 704 l 100 671 z "},"‚":{"ha":290,"x_min":47,"x_max":242,"o":"m 109 262 l 181 262 l 242 20 l 47 -20 l 109 262 z "}," ":{"ha":880,"x_min":0,"x_max":0,"o":""},"\r":{"ha":339,"x_min":0,"x_max":0,"o":""},"¢":{"ha":1001,"x_min":41,"x_max":960,"o":"m 500 -14 q 258 81 363 5 q 97 274 154 157 q 41 529 41 391 q 97 784 41 667 q 258 977 154 901 q 500 1072 362 1053 l 488 1228 l 584 1228 l 572 1077 l 585 1077 q 773 1059 685 1077 q 931 1004 861 1041 l 866 795 l 852 795 q 725 892 798 851 q 570 953 652 932 l 570 75 q 682 52 627 52 l 948 260 l 960 255 l 894 41 q 585 -20 768 -20 l 572 -20 l 584 -173 l 488 -173 l 500 -14 m 502 966 q 420 972 458 972 q 380 970 408 972 q 268 812 304 901 q 231 627 231 724 q 267 426 231 526 q 365 244 303 326 q 502 112 427 162 l 502 966 z "},"¤":{"ha":920,"x_min":41,"x_max":880,"o":"m 41 168 l 138 251 q 66 374 92 307 q 41 515 41 442 q 66 657 41 589 q 138 781 92 725 l 41 863 l 109 931 l 193 833 q 317 906 248 880 q 463 931 387 931 q 604 906 536 931 q 728 833 672 880 l 810 931 l 878 863 l 781 781 q 853 657 827 725 q 878 515 878 589 q 853 373 878 441 q 782 250 828 305 l 880 167 l 812 100 l 728 197 q 605 125 673 151 q 463 100 536 100 q 318 125 387 100 q 193 197 248 151 l 109 100 l 41 168 m 461 276 q 580 309 525 276 q 667 396 635 341 q 700 515 700 451 q 668 639 700 584 q 582 725 636 694 q 461 755 527 755 q 340 723 395 755 q 252 635 284 690 q 219 515 219 580 q 252 396 219 451 q 340 309 284 341 q 461 276 395 276 z "},"$":{"ha":778,"x_min":47,"x_max":730,"o":"m 292 -18 q 47 41 151 -9 l 103 218 l 117 218 l 299 62 l 331 439 q 268 477 309 453 q 107 615 158 539 q 57 783 57 691 q 97 930 57 864 q 211 1035 137 996 q 382 1076 284 1074 l 370 1228 l 466 1228 l 454 1073 q 682 1002 588 1061 l 618 795 l 604 795 l 446 975 l 416 634 l 465 606 q 666 436 601 527 q 730 258 730 346 q 686 114 730 177 q 558 16 642 52 q 364 -20 475 -20 l 376 -173 l 280 -173 l 292 -18 m 379 1005 q 258 963 303 998 q 212 869 212 928 q 243 771 212 814 q 351 675 275 727 l 379 1005 m 367 50 q 500 93 453 58 q 547 188 547 128 q 512 289 547 239 q 397 397 477 339 l 367 50 z "},"€":{"ha":1123,"x_min":41,"x_max":1082,"o":"m 707 -20 q 458 35 570 -20 q 274 185 347 90 q 176 403 201 281 l 58 389 l 73 471 l 165 471 q 163 529 163 496 l 163 538 l 41 538 l 56 619 l 168 607 q 256 847 184 741 q 444 1016 328 954 q 707 1077 560 1077 q 895 1059 807 1077 q 1053 1004 983 1041 l 988 795 l 974 795 q 779 924 895 877 q 543 972 663 972 q 503 970 528 972 q 386 803 422 897 q 353 607 349 710 l 638 607 l 811 621 l 796 538 l 360 538 q 375 471 364 511 l 783 471 l 769 393 l 635 403 l 397 403 q 502 225 437 305 q 645 99 566 145 q 804 52 724 52 l 1070 260 l 1082 255 l 1016 41 q 707 -20 890 -20 z "},"£":{"ha":949,"x_min":41,"x_max":902,"o":"m 73 14 l 161 89 q 200 241 188 158 q 213 475 212 325 l 41 461 l 41 557 l 214 543 q 268 834 214 715 q 424 1015 322 954 q 665 1076 525 1076 q 774 1067 719 1076 q 868 1044 829 1058 l 790 836 l 777 836 l 644 1007 q 527 953 578 1007 q 449 795 477 899 q 420 543 420 690 l 597 543 l 770 557 l 770 461 l 597 475 l 420 475 q 406 240 418 326 q 364 68 393 155 l 682 68 l 888 211 l 902 211 l 876 0 l 73 0 l 73 14 z "},"¥":{"ha":974,"x_min":34,"x_max":940,"o":"m 940 1055 l 940 1042 l 860 966 l 587 430 l 660 430 l 833 444 l 833 361 l 587 361 l 587 295 l 833 295 l 833 213 l 660 227 l 587 227 l 587 87 l 677 14 l 677 0 l 298 0 l 298 13 l 388 87 l 388 227 l 317 227 l 144 213 l 144 295 l 388 295 l 388 361 l 144 361 l 144 444 l 317 430 l 388 430 l 115 966 l 34 1042 l 34 1055 l 492 1055 l 492 1042 l 338 966 l 560 530 l 783 966 l 629 1042 l 629 1055 l 940 1055 z "},"+":{"ha":730,"x_min":81,"x_max":648,"o":"m 331 296 l 331 373 l 254 373 l 81 359 l 81 455 l 254 441 l 331 441 l 331 517 l 317 690 l 413 690 l 399 517 l 399 441 l 475 441 l 648 455 l 648 359 l 475 373 l 399 373 l 399 296 l 413 123 l 317 123 l 331 296 z "},"−":{"ha":648,"x_min":81,"x_max":567,"o":"m 81 455 l 254 441 l 394 441 l 567 455 l 567 359 l 394 373 l 254 373 l 81 359 l 81 455 z "},"×":{"ha":631,"x_min":81,"x_max":550,"o":"m 81 240 l 213 353 l 267 407 l 213 461 l 81 574 l 149 642 l 262 509 l 316 455 l 370 509 l 482 641 l 550 573 l 418 460 l 364 407 l 418 353 l 550 241 l 482 173 l 370 304 l 316 359 l 262 304 l 149 172 l 81 240 z "},"÷":{"ha":689,"x_min":81,"x_max":608,"o":"m 268 600 l 345 676 l 420 600 l 345 523 l 268 600 m 81 455 l 254 441 l 435 441 l 608 455 l 608 359 l 435 373 l 254 373 l 81 359 l 81 455 m 268 215 l 345 292 l 420 215 l 345 138 l 268 215 z "},"=":{"ha":689,"x_min":81,"x_max":608,"o":"m 81 557 l 254 543 l 435 543 l 608 557 l 608 475 l 81 475 l 81 557 m 81 340 l 608 340 l 608 258 l 435 271 l 254 271 l 81 258 l 81 340 z "},"≠":{"ha":689,"x_min":81,"x_max":608,"o":"m 254 271 l 81 257 l 81 339 l 280 339 l 334 475 l 81 475 l 81 556 l 254 543 l 360 543 l 429 719 l 505 719 l 435 543 l 608 556 l 608 475 l 409 475 l 355 339 l 608 339 l 608 257 l 435 271 l 329 271 l 260 94 l 184 94 l 254 271 z "},">":{"ha":440,"x_min":7,"x_max":352,"o":"m 7 121 l 153 406 l 7 690 l 20 690 l 352 406 l 20 121 l 7 121 z "},"<":{"ha":440,"x_min":88,"x_max":433,"o":"m 88 406 l 420 690 l 433 690 l 288 406 l 433 121 l 420 121 l 88 406 z "},"~":{"ha":719,"x_min":68,"x_max":651,"o":"m 192 387 q 76 354 132 378 l 68 363 q 251 473 119 473 q 316 467 286 473 l 533 431 q 643 465 589 441 l 651 456 q 582 373 625 401 q 471 345 538 345 q 406 351 442 345 l 192 387 z "},"%":{"ha":1084,"x_min":68,"x_max":1017,"o":"m 307 591 q 186 624 241 591 q 100 711 132 656 q 68 832 68 766 q 100 955 68 899 q 187 1043 132 1010 q 308 1076 242 1076 q 429 1043 374 1076 q 516 954 484 1010 q 548 832 548 899 q 516 712 548 767 q 428 624 484 656 q 307 591 373 591 m 760 882 l 851 1055 l 964 1055 l 323 173 l 232 0 l 119 0 l 760 882 m 308 661 q 395 684 355 661 q 458 748 435 707 q 481 836 481 788 q 457 921 481 882 q 394 984 434 960 q 308 1007 355 1007 q 221 984 260 1007 q 158 921 181 960 q 134 836 134 882 q 157 747 134 787 q 219 684 180 707 q 308 661 259 661 m 776 -18 q 655 14 710 -18 q 568 101 600 46 q 536 222 536 157 q 569 345 536 289 q 656 433 601 401 q 777 466 711 466 q 897 433 842 466 q 984 345 952 400 q 1017 222 1017 289 q 984 102 1017 157 q 897 14 952 47 q 776 -18 842 -18 m 777 51 q 863 75 823 51 q 926 138 903 98 q 949 226 949 178 q 926 311 949 272 q 863 374 903 351 q 777 397 823 397 q 689 374 729 397 q 626 311 650 351 q 603 226 603 272 q 626 137 603 177 q 688 74 648 97 q 777 51 728 51 z "},"‰":{"ha":1626,"x_min":68,"x_max":1558,"o":"m 307 591 q 186 624 241 591 q 100 711 132 656 q 68 832 68 766 q 100 955 68 899 q 187 1043 132 1010 q 308 1076 242 1076 q 429 1043 374 1076 q 516 954 484 1010 q 548 832 548 899 q 516 712 548 767 q 428 624 484 656 q 307 591 373 591 m 760 882 l 851 1055 l 964 1055 l 323 173 l 232 0 l 119 0 l 760 882 m 308 661 q 395 684 355 661 q 458 748 435 707 q 481 836 481 788 q 457 921 481 882 q 394 984 434 960 q 308 1007 355 1007 q 221 984 260 1007 q 158 921 181 960 q 134 836 134 882 q 157 747 134 787 q 219 684 180 707 q 308 661 259 661 m 776 -18 q 655 14 710 -18 q 568 101 600 46 q 536 222 536 157 q 569 345 536 289 q 656 433 601 401 q 777 466 711 466 q 897 433 842 466 q 984 345 952 400 q 1017 222 1017 289 q 984 102 1017 157 q 897 14 952 47 q 776 -18 842 -18 m 1318 -18 q 1197 14 1252 -18 q 1110 101 1142 46 q 1078 222 1078 157 q 1111 345 1078 289 q 1198 433 1143 401 q 1318 466 1253 466 q 1439 433 1384 466 q 1526 345 1494 400 q 1558 222 1558 289 q 1526 102 1558 157 q 1439 14 1494 47 q 1318 -18 1383 -18 m 777 51 q 863 75 823 51 q 926 138 903 98 q 949 226 949 178 q 926 310 949 271 q 862 373 902 349 q 777 397 823 397 q 689 374 729 397 q 626 311 650 351 q 603 226 603 272 q 626 137 603 177 q 688 74 648 97 q 777 51 728 51 m 1318 51 q 1405 75 1365 51 q 1468 138 1444 98 q 1491 226 1491 178 q 1468 311 1491 272 q 1405 374 1444 351 q 1318 397 1365 397 q 1231 374 1271 397 q 1168 311 1192 351 q 1145 226 1145 272 q 1167 137 1145 177 q 1230 74 1190 97 q 1318 51 1270 51 z "},"↑":{"ha":705,"x_min":68,"x_max":637,"o":"m 319 596 l 68 523 l 68 538 l 353 812 l 637 538 l 637 523 l 387 596 l 478 -15 l 353 54 l 228 -15 l 319 596 z "},"↗":{"ha":816,"x_min":68,"x_max":748,"o":"m 564 562 l 335 688 l 345 699 l 741 691 l 748 296 l 737 286 l 612 514 l 245 18 l 205 155 l 68 195 l 564 562 z "},"→":{"ha":963,"x_min":68,"x_max":895,"o":"m 679 392 l 606 643 l 621 643 l 895 358 l 621 74 l 606 74 l 679 324 l 68 233 l 136 358 l 68 483 l 679 392 z "},"↘":{"ha":817,"x_min":68,"x_max":749,"o":"m 612 243 l 738 472 l 749 462 l 741 66 l 347 59 l 336 70 l 564 195 l 68 562 l 205 602 l 245 739 l 612 243 z "},"↓":{"ha":705,"x_min":68,"x_max":637,"o":"m 353 744 l 478 812 l 387 201 l 637 275 l 637 260 l 353 -15 l 68 260 l 68 275 l 319 201 l 228 812 l 353 744 z "},"↙":{"ha":816,"x_min":68,"x_max":748,"o":"m 252 178 l 481 53 l 471 42 l 75 50 l 68 444 l 79 455 l 203 227 l 571 723 l 611 586 l 748 546 l 252 178 z "},"←":{"ha":963,"x_min":68,"x_max":895,"o":"m 284 349 l 357 98 l 342 98 l 68 382 l 342 667 l 357 667 l 284 416 l 895 508 l 827 382 l 895 258 l 284 349 z "},"↖":{"ha":817,"x_min":68,"x_max":749,"o":"m 204 515 l 79 286 l 68 296 l 75 692 l 470 699 l 481 688 l 252 563 l 749 195 l 612 155 l 572 18 l 204 515 z "},"↔":{"ha":1351,"x_min":68,"x_max":1283,"o":"m 68 406 l 342 690 l 357 690 l 284 440 l 675 492 l 1067 440 l 994 690 l 1008 690 l 1283 406 l 1008 121 l 994 121 l 1067 372 l 675 321 l 284 372 l 357 121 l 342 121 l 68 406 z "},"↕":{"ha":705,"x_min":68,"x_max":637,"o":"m 68 175 l 68 190 l 319 117 l 267 406 l 319 696 l 68 623 l 68 637 l 353 912 l 637 637 l 637 623 l 387 696 l 438 406 l 387 117 l 637 190 l 637 175 l 353 -100 l 68 175 z "},"@":{"ha":1325,"x_min":61,"x_max":1264,"o":"m 751 -21 q 539 36 636 -21 q 386 190 442 93 q 329 401 329 287 q 386 612 329 515 q 540 765 442 709 q 756 821 638 821 l 917 821 l 842 342 l 932 274 l 932 260 l 630 260 l 709 761 q 545 699 618 750 q 430 569 471 648 q 388 401 388 491 q 437 218 388 302 q 569 85 486 134 q 751 37 652 37 q 979 98 874 37 q 1144 265 1083 160 q 1206 492 1206 370 q 1135 755 1206 634 q 943 947 1064 876 q 682 1018 823 1018 q 487 982 581 1018 q 319 882 394 947 q 194 728 243 817 q 118 438 118 595 q 174 172 118 306 l 275 0 l 171 0 q 91 226 120 113 q 61 439 61 338 q 144 758 61 612 q 369 990 227 904 q 682 1076 511 1076 q 974 997 840 1076 q 1186 784 1107 918 q 1264 492 1264 650 q 1195 235 1264 353 q 1008 48 1126 117 q 751 -21 890 -21 z "},"&":{"ha":1014,"x_min":54,"x_max":987,"o":"m 624 63 q 507 3 572 26 q 376 -20 441 -20 q 230 15 298 -20 q 112 123 162 49 q 54 307 54 208 q 77 430 54 370 q 141 539 100 490 q 237 621 182 589 l 222 642 q 178 787 178 711 q 222 929 178 863 q 348 1036 267 996 q 534 1076 429 1076 q 675 1057 606 1076 q 802 1002 745 1038 l 737 795 l 723 795 l 537 1007 q 446 987 488 1006 q 379 933 404 968 q 353 854 353 898 q 391 746 353 802 l 745 228 q 788 348 779 288 q 797 475 797 407 l 987 475 q 966 394 987 443 q 902 284 946 345 q 790 161 858 223 l 899 0 l 668 0 l 624 63 m 278 561 q 233 504 248 540 q 218 424 218 469 q 234 329 218 378 q 279 237 250 279 q 380 141 319 179 q 502 103 441 103 q 581 125 545 103 l 278 561 z "},"¶":{"ha":786,"x_min":61,"x_max":705,"o":"m 204 14 l 342 87 l 342 546 q 197 580 262 546 q 97 672 133 614 q 61 800 61 730 q 97 928 61 870 q 197 1021 133 987 q 342 1055 262 1055 l 411 1055 l 411 0 l 204 0 l 204 14 m 549 1055 l 705 1055 l 705 1042 l 617 966 l 617 87 l 704 14 l 704 0 l 549 0 l 549 1055 z "},"§":{"ha":789,"x_min":47,"x_max":741,"o":"m 365 -305 q 47 -254 178 -305 l 106 -79 l 120 -79 l 323 -241 q 487 -210 427 -240 q 547 -120 547 -180 q 520 -49 547 -83 q 434 25 494 -14 q 270 115 374 64 q 57 393 57 219 q 92 511 57 459 q 197 591 127 562 q 95 697 130 639 q 60 823 60 756 q 102 950 60 892 q 221 1042 144 1008 q 397 1076 298 1076 q 561 1058 485 1076 q 691 1006 636 1040 l 626 795 l 611 795 l 421 1004 q 399 1004 414 1004 q 271 974 318 1004 q 223 891 223 943 q 247 819 223 852 q 324 751 271 786 q 473 670 377 716 q 678 531 614 603 q 741 369 741 459 q 697 253 741 300 q 568 182 653 205 q 695 77 652 134 q 739 -52 739 19 q 693 -183 739 -125 q 563 -273 648 -241 q 365 -305 478 -305 m 491 227 q 535 266 519 241 q 550 320 550 290 q 523 391 550 356 q 436 465 496 425 q 270 556 375 504 q 233 513 246 540 q 220 460 220 486 q 244 383 220 416 q 326 313 269 349 q 491 227 382 277 z "},"©":{"ha":1261,"x_min":81,"x_max":1179,"o":"m 631 -20 q 355 54 481 -20 q 155 253 229 127 q 81 528 81 379 q 155 803 81 677 q 355 1002 229 928 q 631 1076 481 1076 q 906 1002 780 1076 q 1106 803 1032 928 q 1179 528 1179 677 q 1106 253 1179 379 q 906 54 1032 127 q 631 -20 780 -20 m 631 43 q 874 109 763 43 q 1050 286 985 174 q 1116 528 1116 397 q 1050 771 1116 660 q 874 947 985 882 q 631 1012 763 1012 q 387 947 498 1012 q 210 771 275 882 q 145 528 145 660 q 210 286 145 397 q 387 109 275 174 q 631 43 498 43 m 634 201 q 467 244 541 201 q 351 361 393 286 q 309 529 309 435 q 350 697 309 623 q 466 814 392 772 q 634 856 541 856 q 844 810 760 856 l 802 677 l 788 677 q 677 752 744 725 q 541 780 610 780 q 518 779 526 780 q 453 689 474 739 q 432 584 432 640 q 470 431 432 506 q 567 307 507 355 q 689 258 627 259 l 847 378 l 859 374 l 820 239 q 634 201 743 201 z "},"®":{"ha":867,"x_min":68,"x_max":800,"o":"m 434 475 q 250 524 334 475 q 117 658 166 574 q 68 842 68 742 q 117 1025 68 941 q 250 1159 166 1109 q 434 1208 334 1208 q 617 1159 534 1208 q 750 1025 701 1109 q 800 842 800 941 q 750 658 800 742 q 617 524 701 574 q 434 475 533 475 m 434 534 q 587 575 516 534 q 699 687 657 616 q 741 842 741 758 q 699 996 741 925 q 586 1107 656 1066 q 434 1149 515 1149 q 280 1107 351 1149 q 168 996 209 1066 q 126 842 126 925 q 168 688 126 758 q 279 576 209 617 q 434 534 350 534 m 280 656 l 315 684 l 315 1015 l 280 1044 l 280 1055 l 410 1055 q 495 1040 458 1055 q 553 997 532 1025 q 573 933 573 969 q 548 863 573 894 q 484 820 524 831 l 538 785 l 588 685 l 618 656 l 618 645 l 516 645 l 431 809 q 398 808 410 808 l 398 685 l 453 656 l 453 645 l 280 645 l 280 656 m 401 842 q 460 867 437 842 q 483 932 483 892 q 460 996 483 972 q 401 1020 438 1020 l 398 1020 l 398 842 l 401 842 z "},"™":{"ha":955,"x_min":68,"x_max":887,"o":"m 146 656 l 181 684 l 181 1020 q 126 1001 153 1015 q 81 968 100 987 l 68 968 l 96 1055 l 385 1055 l 356 968 l 346 968 q 311 999 334 985 q 264 1020 289 1013 l 264 684 l 299 656 l 299 645 l 146 645 l 146 656 m 477 947 l 482 916 l 482 685 l 536 656 l 536 645 l 413 645 l 413 656 l 448 684 l 448 1015 l 413 1044 l 413 1055 l 523 1055 l 641 778 l 760 1055 l 887 1055 l 887 1044 l 852 1015 l 852 684 l 887 656 l 887 645 l 713 645 l 713 656 l 768 685 l 768 1002 l 764 981 l 660 737 l 684 708 l 620 637 l 610 637 l 477 947 z "},"°":{"ha":616,"x_min":68,"x_max":548,"o":"m 307 591 q 186 624 241 591 q 100 711 132 656 q 68 832 68 766 q 100 955 68 899 q 187 1043 132 1010 q 308 1076 242 1076 q 429 1043 374 1076 q 516 954 484 1010 q 548 832 548 899 q 516 712 548 767 q 428 624 484 656 q 307 591 373 591 m 308 661 q 394 684 355 661 q 457 748 434 708 q 481 836 481 788 q 457 921 481 882 q 394 984 434 960 q 308 1007 355 1007 q 221 984 260 1007 q 158 921 181 960 q 134 836 134 882 q 157 747 134 787 q 219 684 180 707 q 308 661 259 661 z "},"|":{"ha":286,"x_min":95,"x_max":191,"o":"m 109 0 l 109 1055 l 95 1228 l 191 1228 l 177 1055 l 177 0 l 191 -173 l 95 -173 l 109 0 z "},"†":{"ha":730,"x_min":81,"x_max":648,"o":"m 262 14 l 318 41 l 331 722 l 331 737 l 254 737 l 123 727 l 95 669 l 81 669 l 81 874 l 95 874 l 124 816 l 254 806 l 331 806 l 331 882 l 321 1013 l 262 1042 l 262 1055 l 468 1055 l 468 1042 l 410 1013 l 399 882 l 399 806 l 475 806 l 606 816 l 635 874 l 648 874 l 648 669 l 635 669 l 606 727 l 475 737 l 399 737 l 399 722 l 412 41 l 468 14 l 468 0 l 262 0 l 262 14 z "},"‡":{"ha":730,"x_min":81,"x_max":648,"o":"m 262 14 l 321 43 l 331 174 l 331 250 l 254 250 l 124 239 l 95 181 l 81 181 l 81 387 l 95 387 l 123 328 l 254 318 l 331 318 l 331 737 l 254 737 l 123 727 l 95 669 l 81 669 l 81 874 l 95 874 l 124 816 l 254 806 l 331 806 l 331 882 l 321 1013 l 262 1042 l 262 1055 l 468 1055 l 468 1042 l 410 1013 l 399 882 l 399 806 l 475 806 l 606 816 l 635 874 l 648 874 l 648 669 l 635 669 l 606 727 l 475 737 l 399 737 l 399 318 l 475 318 l 606 328 l 635 387 l 648 387 l 648 181 l 635 181 l 606 239 l 475 250 l 399 250 l 399 174 l 410 42 l 468 14 l 468 0 l 262 0 l 262 14 z "},"℮":{"ha":1038,"x_min":47,"x_max":990,"o":"m 519 -20 q 282 37 391 -20 q 111 192 174 94 q 47 406 47 290 q 111 619 47 522 q 282 774 174 717 q 519 831 391 831 q 755 774 647 831 q 927 619 863 717 q 990 406 990 522 l 990 378 l 244 378 l 244 181 q 263 136 244 153 q 384 60 318 87 q 519 34 449 34 q 676 69 602 34 q 804 168 751 104 l 911 168 q 741 30 846 80 q 519 -20 636 -20 m 793 431 l 793 630 q 774 675 793 656 q 656 750 722 724 q 519 777 590 777 q 382 750 448 777 q 263 675 316 724 q 244 630 244 656 l 244 431 l 793 431 z "},"^":{"ha":811,"x_min":68,"x_max":743,"o":"m 68 698 l 406 1055 l 743 698 l 743 621 l 730 621 l 406 961 l 81 621 l 68 621 l 68 698 z "},"̦":{"ha":0,"x_min":-214,"x_max":-50,"o":"m -182 -393 q -163 -307 -163 -356 q -176 -230 -163 -267 q -214 -165 -189 -192 l -115 -64 q -50 -208 -50 -135 q -89 -321 -50 -271 q -174 -402 -128 -371 l -182 -393 z "},"´":{"ha":408,"x_min":43,"x_max":357,"o":"m 170 1373 l 357 1373 l 357 1360 l 58 1150 l 43 1150 l 170 1373 z "},"˘":{"ha":519,"x_min":34,"x_max":485,"o":"m 259 1150 q 139 1180 189 1150 q 63 1253 90 1209 q 34 1339 37 1296 l 46 1339 q 122 1282 69 1305 q 259 1257 174 1259 q 401 1281 348 1259 q 473 1339 455 1302 l 485 1339 q 456 1252 482 1295 q 380 1179 430 1208 q 259 1150 330 1150 z "},"ˇ":{"ha":550,"x_min":56,"x_max":494,"o":"m 56 1369 l 64 1378 l 275 1270 l 486 1378 l 494 1369 l 275 1130 l 56 1369 z "},"¸":{"ha":334,"x_min":62,"x_max":300,"o":"m 138 -366 q 62 -350 96 -366 l 67 -338 q 79 -338 71 -338 q 151 -317 120 -338 q 182 -258 182 -296 q 172 -214 182 -231 q 143 -180 162 -198 q 119 -151 127 -163 q 111 -120 111 -139 q 126 -78 111 -98 q 170 -43 140 -58 q 164 -65 164 -54 q 176 -92 164 -81 q 212 -117 187 -102 q 238 -132 224 -123 q 300 -236 300 -174 q 257 -332 300 -297 q 138 -366 214 -366 z "},"ˆ":{"ha":550,"x_min":56,"x_max":494,"o":"m 56 1155 l 275 1394 l 494 1155 l 486 1145 l 275 1254 l 64 1145 l 56 1155 z "},"¨":{"ha":544,"x_min":20,"x_max":524,"o":"m 20 1262 l 129 1369 l 237 1262 l 129 1154 l 20 1262 m 307 1262 l 416 1369 l 524 1262 l 416 1154 l 307 1262 z "},"˙":{"ha":333,"x_min":53,"x_max":280,"o":"m 53 1261 l 167 1375 l 280 1261 l 167 1149 l 53 1261 z "},"`":{"ha":377,"x_min":20,"x_max":334,"o":"m 319 1150 l 20 1360 l 20 1373 l 208 1373 l 334 1150 l 319 1150 z "},"˝":{"ha":586,"x_min":34,"x_max":551,"o":"m 134 1373 l 317 1373 l 317 1360 l 49 1150 l 34 1150 l 134 1373 m 368 1373 l 551 1373 l 551 1360 l 283 1150 l 268 1150 l 368 1373 z "},"¯":{"ha":495,"x_min":34,"x_max":461,"o":"m 34 1289 l 461 1289 l 461 1193 l 248 1227 l 34 1193 l 34 1289 z "},"˛":{"ha":421,"x_min":34,"x_max":387,"o":"m 264 -254 q 216 -291 246 -278 q 154 -304 186 -304 q 95 -292 122 -304 q 51 -253 67 -279 q 34 -189 34 -227 q 53 -113 34 -151 q 110 -45 73 -75 q 198 0 146 -14 l 387 0 q 259 -26 310 0 q 184 -93 208 -53 q 160 -174 160 -133 q 177 -229 160 -211 q 222 -248 193 -248 q 256 -243 239 -248 l 264 -254 z "},"˚":{"ha":332,"x_min":34,"x_max":298,"o":"m 166 1131 q 100 1149 130 1131 q 52 1197 69 1166 q 34 1263 34 1227 q 52 1328 34 1298 q 100 1376 69 1358 q 166 1394 130 1394 q 232 1376 202 1394 q 280 1328 262 1358 q 298 1263 298 1298 q 280 1197 298 1227 q 232 1149 262 1166 q 166 1131 202 1131 m 203 1177 q 228 1208 219 1188 q 236 1250 236 1227 q 229 1289 236 1270 q 193 1332 218 1314 q 142 1350 168 1350 q 130 1348 138 1350 q 104 1317 113 1337 q 96 1275 96 1297 q 103 1236 96 1252 q 139 1193 115 1211 q 190 1175 163 1175 q 203 1177 195 1175 z "},"˜":{"ha":507,"x_min":34,"x_max":473,"o":"m 129 1241 q 42 1208 84 1232 l 34 1217 q 95 1298 60 1270 q 179 1326 130 1326 q 229 1319 203 1326 l 383 1284 q 465 1318 424 1295 l 473 1310 q 412 1228 447 1255 q 330 1200 378 1200 q 279 1207 305 1200 l 129 1241 z "},"\u0000":{"ha":0,"x_min":0,"x_max":0,"o":""}}}
